<svg version="1.2" xmlns="http://www.w3.org/2000/svg" viewBox="0 0 150 150" width="500" height="500">
	<title>Weather_Icons24-ai</title>
	<style>
		.s0 { fill: none;stroke: #ffffff;stroke-linecap: round;stroke-linejoin: round;stroke-width: 6 } 
		.s1 { fill: #ffffff } 
		.s2 { fill: #ffffff;stroke: #ffffff;stroke-linecap: round;stroke-linejoin: round;stroke-width: 2 } 
		.s3 { fill: none;stroke: #ffffff;stroke-linecap: round;stroke-linejoin: round;stroke-width: 4 } 
	</style>
	<g id="Layer 1">
		<path id="&lt;Path&gt;" class="s0" d="m916.8-148c10 2.2 17.4 11.1 17.4 21.8 0 12.4-10 22.4-22.4 22.4h-72.3c-12.4 0-22.4-8.8-22.4-21.2 0-10.5 7.3-19.4 17.2-21.7-0.6-1.8-1-3.8-1-5.8 0-9.9 8.1-18 18.1-18 4.9 0 9.4 2 12.6 5.2 4.4-9.7 14.1-16.4 25.5-16.4 15.4 0 27.9 12.5 27.9 27.9q0 2-0.6 5.8z"/>
		<path id="&lt;Path&gt;" class="s1" d="m848.1-89.7q6.9 6.9 7.2 14.1c0 4-3.2 7.2-7.2 7.2-3.9 0-7.1-3.2-7.1-7.2q0.2-7.2 7.1-14.1z"/>
		<path id="&lt;Path&gt;" class="s1" d="m903.5-89.7q6.9 6.9 7.1 14.1c0 4-3.2 7.2-7.1 7.2-4 0-7.2-3.2-7.2-7.2q0.3-7.2 7.2-14.1z"/>
		<path id="&lt;Path&gt;" class="s1" d="m875.8-83q6.9 6.9 7.2 14.1c0 4-3.2 7.2-7.2 7.2-4 0-7.2-3.2-7.2-7.2q0.3-7.2 7.2-14.1z"/>
		<path id="&lt;Path&gt;" class="s0" d="m117-129.9c10.3 2.3 18.1 11.6 18.1 22.7 0 12.8-10.4 23.2-23.2 23.2h-75.1c-12.8 0-23.2-9.2-23.2-22 0-10.9 7.6-20.1 17.8-22.6-0.6-1.8-0.9-3.8-0.9-5.9 0-10.3 8.3-18.7 18.7-18.7 5.1 0 9.7 2.1 13.1 5.4 4.5-10 14.6-17 26.4-17 15.9 0 28.9 13 28.9 28.9q0 2.1-0.6 6z"/>
		<path id="&lt;Path&gt;" class="s0" d="m308.7-125.7c9.4 2.2 16.5 10.6 16.5 20.6 0 11.6-9.5 21.1-21.1 21.1h-68.1c-11.6 0-21.1-8.3-21.1-19.9 0-10 6.9-18.3 16.2-20.5-0.6-1.7-0.9-3.6-0.9-5.5 0-9.3 7.6-16.9 17-16.9 4.6 0 8.8 1.9 11.9 4.9 4.1-9.1 13.3-15.4 23.9-15.4 14.5 0 26.3 11.7 26.3 26.2q0 1.9-0.6 5.4z"/>
		<path id="&lt;Path&gt;" class="s0" d="m291.5-155.9c3.9-4.3 9.1-7.4 15.2-8.5 14.4-2.5 28.2 7.1 30.7 21.5 2.1 11.9-4.1 23.4-14.4 28.4"/>
		<path id="&lt;Path&gt;" class="s0" d="m691-118.1c7.7 1.7 13.5 8.6 13.5 16.8 0 9.5-7.8 17.3-17.3 17.3h-55.7c-9.6 0-17.3-6.8-17.3-16.3 0-8.2 5.7-15 13.3-16.8q-0.7-2.1-0.8-4.4c0-7.7 6.3-13.9 13.9-13.9 3.8 0 7.3 1.5 9.8 4 3.4-7.5 10.9-12.6 19.6-12.6 11.8 0 21.5 9.6 21.5 21.5q0 1.5-0.5 4.4z"/>
		<path id="&lt;Path&gt;" class="s0" d="m676.9-142.9c3.2-3.5 7.5-6 12.5-6.9 11.7-2.1 23 5.8 25.1 17.6 1.7 9.7-3.4 19.1-11.8 23.2"/>
		<g id="&lt;Group&gt;">
			<circle id="&lt;Path&gt;" class="s0" cx="475.8" cy="-122.4" r="33.1"/>
			<path id="&lt;Path&gt;" class="s0" d="m475.8-171.5v-10.5"/>
			<path id="&lt;Path&gt;" class="s0" d="m416.3-122.4h10.5"/>
			<path id="&lt;Path&gt;" class="s0" d="m510.4-87.7l8.2 8.2"/>
			<path id="&lt;Path&gt;" class="s0" d="m432.9-165.2l8.2 8.2"/>
			<path id="&lt;Path&gt;" class="s0" d="m441.1-87.7l-8.2 8.2"/>
			<path id="&lt;Path&gt;" class="s0" d="m518.6-165.2l-8.2 8.2"/>
			<g id="&lt;Group&gt;">
				<path id="&lt;Path&gt;" class="s0" d="m510.4-157l8.2-8.2"/>
				<path id="&lt;Path&gt;" class="s0" d="m432.9-79.5l8.2-8.2"/>
				<path id="&lt;Path&gt;" class="s0" d="m510.3-87.6l8.2 8.2"/>
				<path id="&lt;Path&gt;" class="s0" d="m432.8-165.1l8.2 8.2"/>
				<path id="&lt;Path&gt;" class="s0" d="m475.7-73.3v10.4"/>
				<path id="&lt;Path&gt;" class="s0" d="m475.7-181.7v10.4"/>
				<path id="&lt;Path&gt;" class="s0" d="m426.7-122.3h-10.5"/>
				<path id="&lt;Path&gt;" class="s0" d="m535.1-122.3h-10.5"/>
			</g>
		</g>
		<path id="&lt;Path&gt;" class="s0" d="m693.2-164.8l-0.1-8.4"/>
		<path id="&lt;Path&gt;" class="s0" d="m728.7-125.2h8.4"/>
		<path id="&lt;Path&gt;" class="s0" d="m720-154.1l6-5.9"/>
		<path id="&lt;Path&gt;" class="s0" d="m664.2-154.1l-5.9-5.9"/>
		<path id="&lt;Path&gt;" class="s0" d="m722.7-94.7l-6-6"/>
		<path id="&lt;Path&gt;" class="s2" d="m1090.1-102.5l-9 13.2 17.1 0.1-48.6 26.8 16.4-21.5-14.2-0.2 14.8-18.4z"/>
		<path id="&lt;Path&gt;" class="s0" d="m1118.1-150.7c10.3 2.3 18 11.5 18 22.5 0 12.7-10.4 23.1-23.1 23.1h-74.7c-12.7 0-23.1-9.1-23.1-21.8 0-11 7.6-20.1 17.8-22.5-0.7-1.9-1-3.9-1-5.9 0-10.3 8.3-18.6 18.6-18.6 5.1 0 9.7 2 13.1 5.3 4.5-9.9 14.5-16.9 26.2-16.9 15.9 0 28.8 12.9 28.8 28.8q0 2.1-0.6 6z"/>
		<path id="&lt;Path&gt;" class="s0" d="m638.2 105.5c-12.4 0-22.4-8.8-22.4-21.2 0-10.6 7.3-19.4 17.2-21.8-0.6-1.8-1-3.7-1-5.7 0-10 8.1-18 18.1-18 4.9 0 9.4 2 12.6 5.2 4.4-9.7 14.1-16.4 25.4-16.4 15.5 0 27.9 12.5 27.9 27.9q0 2-0.6 5.8v-0.1c10 2.3 17.5 11.2 17.5 21.9 0 12.3-10 22.4-22.4 22.4"/>
		<g id="&lt;Group&gt;">
			<path id="&lt;Path&gt;" class="s3" d="m674.3 80.7v49.5"/>
			<path id="&lt;Path&gt;" class="s3" d="m699.1 105.5h-49.5"/>
			<path id="&lt;Path&gt;" class="s3" d="m653.6 98.3l7.2 7.2-7.2 7.1"/>
			<path id="&lt;Path&gt;" class="s3" d="m695.1 112.6l-7.2-7.1 7.2-7.2"/>
			<path id="&lt;Path&gt;" class="s3" d="m667.2 126.2l7.1-7.2 7.2 7.2"/>
			<path id="&lt;Path&gt;" class="s3" d="m681.5 84.7l-7.2 7.2-7.1-7.2"/>
			<path id="&lt;Path&gt;" class="s3" d="m691.8 88l-35 35"/>
			<path id="&lt;Path&gt;" class="s3" d="m691.8 123l-35-35"/>
		</g>
		<path id="&lt;Path&gt;" class="s0" d="m507.7 77.1q0.1 0.3 0.1 0.5c0 18.3-14.9 33.1-33.2 33.1-18.2 0-33.1-14.8-33.1-33.1 0-17 12.8-30.9 29.2-32.9-4.1 4.5-6.7 10.4-6.7 16.9 0 13.6 11 24.6 24.6 24.6 7.8 0 14.6-3.5 19.1-9.1z"/>
		<path id="&lt;Path&gt;" class="s0" d="m902.8 73c8.8 2 15.4 9.8 15.4 19.2 0 10.9-8.9 19.8-19.8 19.8h-63.7c-10.9 0-19.8-7.8-19.8-18.7 0-9.3 6.5-17.1 15.2-19.2q-0.8-2.4-0.8-5c0-8.8 7.1-15.9 15.8-15.9 4.4 0 8.3 1.7 11.2 4.6 3.9-8.6 12.5-14.5 22.4-14.5 13.6 0 24.6 11 24.6 24.6q0 1.8-0.5 5.1z"/>
		<path id="&lt;Path&gt;" class="s0" d="m883.1 41.2c0-13.1 9.8-21.9 22.5-23.4-3.2 3.4-5.2 7.9-5.2 13 0 10.5 8.6 19 19.1 19 6 0 11.3-2.7 14.8-7q0 0.2 0 0.4c0 14.1-13.5 25.6-27.6 25.6"/>
		<path id="&lt;Path&gt;" class="s0" d="m1116.8 56c10 2.2 17.4 11.1 17.4 21.8 0 12.4-10 22.4-22.4 22.4h-72.3c-12.4 0-22.4-8.8-22.4-21.2 0-10.5 7.3-19.4 17.2-21.7-0.6-1.8-1-3.8-1-5.8 0-9.9 8.1-18 18.1-18 4.9 0 9.4 2 12.6 5.2 4.4-9.7 14.1-16.4 25.5-16.4 15.4 0 27.9 12.5 27.9 27.9q0 2-0.6 5.8z"/>
		<circle id="&lt;Path&gt;" class="s2" cx="1049.3" cy="115.8" r="3.8"/>
		<circle id="&lt;Path&gt;" class="s2" cx="1076.9" cy="115.8" r="3.8"/>
		<circle id="&lt;Path&gt;" class="s2" cx="1104.5" cy="115.8" r="3.8"/>
		<circle id="&lt;Path&gt;" class="s2" cx="1063.3" cy="129.8" r="3.8"/>
		<circle id="&lt;Path&gt;" class="s2" cx="1090.9" cy="129.8" r="3.8"/>
		<path id="&lt;Path&gt;" class="s0" d="m318.3 52.1c10.3 2.3 18.1 11.6 18.1 22.7 0 12.8-10.4 23.2-23.2 23.2h-75.1c-12.8 0-23.2-9.2-23.2-22 0-10.9 7.6-20.1 17.9-22.6-0.7-1.8-1-3.8-1-5.9 0-10.3 8.3-18.7 18.7-18.7 5.1 0 9.7 2.1 13.1 5.4 4.6-10 14.6-17 26.4-17 15.9 0 28.9 13 28.9 28.9q0 2.1-0.6 6z"/>
		<path id="&lt;Path&gt;" class="s2" d="m686.3 302.2l-7.7 11.2h14.5l-41.2 22.9 13.9-18.4-12-0.1 12.5-15.6z"/>
		<path id="&lt;Path&gt;" class="s0" d="m716.8 253.8c10.3 2.3 18 11.5 18 22.5 0 12.7-10.4 23.1-23.1 23.1h-74.7c-12.7 0-23.1-9.1-23.1-21.8 0-11 7.6-20.1 17.8-22.5-0.7-1.9-1-3.9-1-5.9 0-10.3 8.3-18.6 18.6-18.6 5.1 0 9.7 2 13 5.3h0.1c4.5-9.9 14.5-16.9 26.2-16.9 15.9 0 28.8 12.9 28.8 28.8q0 2.1-0.6 6z"/>
		<circle id="&lt;Path&gt;" class="s2" cx="639.3" cy="313.8" r="3.8"/>
		<circle id="&lt;Path&gt;" class="s2" cx="708.5" cy="313.8" r="3.8"/>
		<circle id="&lt;Path&gt;" class="s2" cx="688.5" cy="331.8" r="3.8"/>
		<path id="&lt;Path&gt;" class="s0" d="m241.5 115l10.9 11"/>
		<path id="&lt;Path&gt;" class="s0" d="m241.5 126.2l11-11"/>
		<path id="&lt;Path&gt;" class="s0" d="m297.4 114.9l10.9 10.9"/>
		<path id="&lt;Path&gt;" class="s0" d="m297.4 126.1l11.1-11.1"/>
		<path id="&lt;Path&gt;" class="s0" d="m268.8 126.6l10.9 10.9"/>
		<path id="&lt;Path&gt;" class="s0" d="m268.8 137.8l11.1-11"/>
		<path id="&lt;Path&gt;" class="s0" d="m306.7 260.2c9.4 2.1 16.4 10.5 16.4 20.5 0 11.6-9.4 21.1-21 21.1h-68.1c-11.7 0-21.1-8.3-21.1-19.9 0-10 6.9-18.3 16.2-20.5-0.6-1.7-0.9-3.5-0.9-5.4 0-9.4 7.6-17 17-17 4.6 0 8.8 1.9 11.9 4.9 4.1-9.1 13.3-15.4 23.9-15.4 14.5 0 26.3 11.7 26.3 26.2q0 1.9-0.6 5.5z"/>
		<path id="&lt;Path&gt;" class="s0" d="m289.5 229.9c3.8-4.3 9.1-7.4 15.2-8.5 14.4-2.5 28.1 7.1 30.7 21.5 2.1 11.9-4.1 23.4-14.5 28.4"/>
		<circle id="&lt;Path&gt;" class="s2" cx="240.4" cy="321" r="3.8"/>
		<circle id="&lt;Path&gt;" class="s2" cx="268" cy="321" r="3.8"/>
		<circle id="&lt;Path&gt;" class="s2" cx="295.6" cy="321" r="3.8"/>
		<circle id="&lt;Path&gt;" class="s2" cx="254.4" cy="335" r="3.8"/>
		<circle id="&lt;Path&gt;" class="s2" cx="282" cy="335" r="3.8"/>
		<path id="&lt;Path&gt;" class="s0" d="m434.3 303.5c-11.7 0-21.1-8.3-21.1-19.9 0-10 6.9-18.3 16.2-20.5-0.6-1.7-0.9-3.5-0.9-5.4 0-9.4 7.6-17 17-17 4.6 0 8.8 1.9 11.9 4.9 4.1-9.1 13.3-15.4 23.9-15.4 14.5 0 26.3 11.8 26.3 26.3q0 1.8-0.6 5.4c9.4 2.1 16.4 10.5 16.4 20.5 0 11.7-9.4 21.1-21 21.1"/>
		<path id="&lt;Path&gt;" class="s0" d="m489.8 231.6c3.8-4.3 9.1-7.4 15.2-8.4 14.4-2.6 28.1 7 30.7 21.4 2.1 11.9-4.1 23.4-14.5 28.5"/>
		<g id="&lt;Group&gt;">
			<path id="&lt;Path&gt;" class="s3" d="m468.3 278.8v49.5"/>
			<path id="&lt;Path&gt;" class="s3" d="m493.1 303.5h-49.5"/>
			<path id="&lt;Path&gt;" class="s3" d="m447.6 296.3l7.1 7.2-7.1 7.2"/>
			<path id="&lt;Path&gt;" class="s3" d="m489.1 310.7l-7.2-7.2 7.2-7.2"/>
			<path id="&lt;Path&gt;" class="s3" d="m461.2 324.3l7.1-7.2 7.2 7.2"/>
			<path id="&lt;Path&gt;" class="s3" d="m475.5 282.8l-7.2 7.1-7.1-7.1"/>
			<path id="&lt;Path&gt;" class="s3" d="m485.8 286l-35 35"/>
			<path id="&lt;Path&gt;" class="s3" d="m485.8 321l-35-35"/>
		</g>
		<path id="&lt;Path&gt;" class="s0" d="m894.8 268.2c7 1.6 12.1 7.8 12.1 15.2 0 8.6-6.9 15.5-15.5 15.5h-50.2c-8.6 0-15.6-6.1-15.6-14.6 0-7.4 5.1-13.5 12-15.2q-0.7-1.8-0.7-3.9c0-7 5.6-12.6 12.5-12.6 3.5 0 6.6 1.4 8.8 3.7 3.1-6.7 9.8-11.4 17.7-11.4 10.7 0 19.3 8.7 19.3 19.4q0 1.3-0.4 4z"/>
		<path id="&lt;Path&gt;" class="s0" d="m876.8 241.4c0-13.1 9.9-21.9 22.6-23.4-3.2 3.4-5.2 8-5.2 13.1 0 10.5 8.5 19 19 19 6 0 11.3-2.7 14.8-7q0 0.2 0 0.3c0 14.2-13.5 25.7-27.6 25.7"/>
		<circle id="&lt;Path&gt;" class="s2" cx="838.7" cy="315" r="3.8"/>
		<circle id="&lt;Path&gt;" class="s2" cx="866.3" cy="315" r="3.8"/>
		<circle id="&lt;Path&gt;" class="s2" cx="893.9" cy="315" r="3.8"/>
		<circle id="&lt;Path&gt;" class="s2" cx="852.7" cy="329" r="3.8"/>
		<circle id="&lt;Path&gt;" class="s2" cx="880.3" cy="329" r="3.8"/>
		<path id="&lt;Path&gt;" class="s0" d="m1094.9 268.6c6.9 1.6 12.1 7.8 12.1 15.2 0 8.6-7 15.5-15.5 15.5h-50.3c-8.5 0-15.5-6.1-15.5-14.7 0-7.3 5.1-13.5 11.9-15.1q-0.6-1.9-0.6-4c0-6.9 5.6-12.5 12.5-12.5 3.4 0 6.5 1.4 8.8 3.6 3-6.7 9.8-11.3 17.6-11.3 10.7 0 19.4 8.6 19.4 19.3q0 1.4-0.4 4z"/>
		<path id="&lt;Path&gt;" class="s0" d="m1076.9 241.8c0-13.1 9.8-21.9 22.5-23.4-3.2 3.4-5.2 8-5.2 13 0 10.6 8.6 19.1 19.1 19.1 6 0 11.3-2.8 14.8-7q0 0.1 0 0.3c0 14.2-13.5 25.6-27.6 25.6"/>
		<path id="&lt;Path&gt;" class="s1" d="m1044.4 311.9q5.4 5.5 5.6 11.2c0 3.1-2.5 5.6-5.6 5.6-3.1 0-5.7-2.5-5.7-5.6q0.3-5.7 5.7-11.2z"/>
		<path id="&lt;Path&gt;" class="s1" d="m1087.9 311.9q5.4 5.5 5.6 11.2c0 3.1-2.5 5.6-5.6 5.6-3.1 0-5.7-2.5-5.7-5.6q0.3-5.7 5.7-11.2z"/>
		<path id="&lt;Path&gt;" class="s1" d="m1066.1 317.2q5.4 5.4 5.7 11.2c0 3.1-2.6 5.6-5.7 5.6-3.1 0-5.6-2.5-5.6-5.6q0.2-5.8 5.6-11.2z"/>
		<path id="&lt;Path&gt;" class="s0" d="m92.3 268.9c7 1.5 12.2 7.7 12.2 15.2 0 8.5-7 15.5-15.6 15.5h-50.2c-8.6 0-15.5-6.1-15.5-14.7 0-7.3 5-13.5 11.9-15.1q-0.7-1.9-0.7-4c0-6.9 5.6-12.5 12.5-12.5 3.5 0 6.6 1.4 8.8 3.6 3.1-6.7 9.8-11.4 17.7-11.4 10.7 0 19.3 8.7 19.3 19.4q0 1.4-0.4 4z"/>
		<path id="&lt;Path&gt;" class="s0" d="m74.3 242.1c0-13.1 9.9-21.9 22.6-23.4-3.2 3.4-5.2 8-5.2 13 0 10.5 8.5 19.1 19 19.1 6 0 11.3-2.8 14.8-7.1q0 0.2 0 0.4c0 14.1-13.4 25.6-27.6 25.6"/>
		<path id="&lt;Path&gt;" class="s2" d="m76.7 300.9l-7.6 11.2h14.4l-41.2 22.8 13.9-18.3-12-0.1 12.5-15.6z"/>
		<g id="&lt;Group&gt;">
			<path id="&lt;Path&gt;" class="s0" d="m49 515.6c-4.8-5.8-7.7-13.2-7.7-21.2 0-18.3 14.8-33.1 33.1-33.1 18.3 0 33.1 14.8 33.1 33.1 0 8-2.9 15.4-7.7 21.2"/>
			<path id="&lt;Path&gt;" class="s0" d="m74.4 447.2v-10.4"/>
			<path id="&lt;Path&gt;" class="s0" d="m15 494.4h10.4"/>
			<path id="&lt;Path&gt;" class="s0" d="m31.6 451.5l8.2 8.2"/>
			<path id="&lt;Path&gt;" class="s0" d="m117.3 451.5l-8.3 8.2"/>
			<g id="&lt;Group&gt;">
				<path id="&lt;Path&gt;" class="s0" d="m109.1 459.7l8.2-8.2"/>
				<path id="&lt;Path&gt;" class="s0" d="m31.5 451.6l8.2 8.2"/>
				<path id="&lt;Path&gt;" class="s0" d="m74.3 435.1v10.4"/>
				<path id="&lt;Path&gt;" class="s0" d="m25.3 494.5h-10.4"/>
				<path id="&lt;Path&gt;" class="s0" d="m133.7 494.5h-10.4"/>
			</g>
			<path id="&lt;Path&gt;" class="s0" d="m20.1 531.6h108.4"/>
		</g>
		<path id="&lt;Path&gt;" class="s0" d="m260.5 455c4.5-2.4 9.7-3.7 15.2-3.7 18.2 0 33.1 14.8 33.1 33.1 0 3.8-0.7 7.5-1.9 10.9"/>
		<path id="&lt;Path&gt;" class="s0" d="m517 458.3c10.3 2.3 18.1 11.5 18.1 22.6 0 12.8-10.4 23.2-23.2 23.2h-75.1c-12.8 0-23.2-9.1-23.2-21.9 0-11 7.6-20.2 17.8-22.6-0.6-1.9-0.9-3.9-0.9-6 0-10.3 8.3-18.6 18.7-18.6 5.1 0 9.7 2 13.1 5.3 4.5-10 14.6-16.9 26.3-16.9 16 0 29 12.9 29 28.9q0 2-0.6 6z"/>
		<path id="&lt;Path&gt;" class="s0" d="m443.6 518.4l-2 14.2"/>
		<path id="&lt;Path&gt;" class="s0" d="m464.3 518.4l-4 28.2"/>
		<path id="&lt;Path&gt;" class="s0" d="m485.8 518.4l-4 28.2"/>
		<path id="&lt;Path&gt;" class="s0" d="m506.6 518.4l-2 14.2"/>
		<path id="&lt;Path&gt;" class="s0" d="m1042.5 517.6l-1.6 11"/>
		<path id="&lt;Path&gt;" class="s0" d="m1058.6 517.6l-3.1 21.8"/>
		<path id="&lt;Path&gt;" class="s0" d="m1075.2 517.6l-3.1 21.8"/>
		<path id="&lt;Path&gt;" class="s0" d="m1091.3 517.6l-1.5 11"/>
		<path id="&lt;Path&gt;" class="s0" d="m835.5 517.6l-1.6 11"/>
		<path id="&lt;Path&gt;" class="s0" d="m851.5 517.6l-3.1 21.8"/>
		<path id="&lt;Path&gt;" class="s0" d="m868.2 517.6l-3.1 21.8"/>
		<path id="&lt;Path&gt;" class="s0" d="m884.3 517.6l-1.6 11"/>
		<path id="&lt;Path&gt;" class="s0" d="m643.5 517.6l-1.5 11"/>
		<path id="&lt;Path&gt;" class="s0" d="m659.6 517.6l-3.1 21.8"/>
		<path id="&lt;Path&gt;" class="s0" d="m676.3 517.6l-3.1 21.8"/>
		<path id="&lt;Path&gt;" class="s0" d="m692.4 517.6l-1.6 11"/>
		<path id="&lt;Path&gt;" class="s0" d="m706.7 462.5c9.4 2.1 16.4 10.5 16.4 20.5 0 11.7-9.4 21.1-21 21.1h-68.1c-11.7 0-21.1-8.3-21.1-19.9 0-10 6.9-18.3 16.2-20.5-0.6-1.7-0.9-3.5-0.9-5.4 0-9.4 7.6-17 17-17 4.6 0 8.8 1.9 11.9 4.9 4.1-9.1 13.3-15.4 23.9-15.4 14.5 0 26.3 11.8 26.3 26.3q0 1.8-0.6 5.4z"/>
		<path id="&lt;Path&gt;" class="s0" d="m689.5 432.2c3.8-4.3 9.1-7.4 15.2-8.4 14.4-2.6 28.1 7 30.7 21.4 2.1 12-4.1 23.4-14.5 28.5"/>
		<path id="&lt;Path&gt;" class="s0" d="m891.8 470.2c7.7 1.8 13.5 8.7 13.5 16.9 0 9.5-7.8 17.2-17.3 17.2h-55.7c-9.6 0-17.3-6.8-17.3-16.3 0-8.1 5.7-15 13.3-16.8q-0.8-2.1-0.8-4.4c0-7.7 6.3-13.9 13.9-13.9 3.8 0 7.3 1.6 9.8 4 3.4-7.4 10.9-12.6 19.6-12.6 11.8 0 21.5 9.6 21.5 21.5q0 1.5-0.5 4.5z"/>
		<path id="&lt;Path&gt;" class="s0" d="m877.7 445.5c3.2-3.5 7.5-6.1 12.5-7 11.7-2 23 5.8 25.1 17.6 1.7 9.8-3.4 19.2-11.8 23.3"/>
		<path id="&lt;Path&gt;" class="s0" d="m894 423.6l-0.1-8.5"/>
		<path id="&lt;Path&gt;" class="s0" d="m929.5 463.2l8.4-0.1"/>
		<path id="&lt;Path&gt;" class="s0" d="m920.8 434.3l6-6"/>
		<path id="&lt;Path&gt;" class="s0" d="m865 434.3l-5.9-6"/>
		<path id="&lt;Path&gt;" class="s0" d="m923.4 493.7l-5.9-6"/>
		<path id="&lt;Path&gt;" class="s0" d="m1094.8 472.9c7 1.6 12.2 7.8 12.2 15.2 0 8.5-7 15.5-15.6 15.5h-50.2c-8.6 0-15.5-6.1-15.5-14.7 0-7.3 5.1-13.5 11.9-15.1q-0.6-1.9-0.7-4c0-6.9 5.6-12.5 12.5-12.5 3.5 0 6.6 1.4 8.8 3.6 3.1-6.7 9.8-11.4 17.7-11.4 10.7 0 19.4 8.7 19.4 19.4q0 1.4-0.5 4z"/>
		<path id="&lt;Path&gt;" class="s0" d="m1076.8 446.1c0-13.1 9.9-21.9 22.6-23.4-3.2 3.4-5.2 8-5.2 13 0 10.5 8.5 19.1 19.1 19.1 5.9 0 11.2-2.8 14.7-7.1q0 0.2 0 0.4c0 14.2-13.4 25.6-27.6 25.6"/>
		<path id="&lt;Path&gt;" class="s0" d="m324.3 483.6c0 0.2 0 0.4 0 0.6 0 26.9-21.8 48.7-48.6 48.7-26.9 0-48.7-21.8-48.7-48.7 0-24.9 18.7-45.4 42.9-48.3-6.1 6.5-9.9 15.2-9.9 24.8 0 20 16.2 36.2 36.2 36.2 11.4 0 21.5-5.2 28.1-13.3z"/>
		<path id="&lt;Path&gt;" class="s0" d="m24.1 101.5h101.1"/>
		<path id="&lt;Path&gt;" class="s0" d="m17.7 89.2h113.3"/>
		<path id="&lt;Path&gt;" class="s0" d="m21.8 76.9h105.8"/>
		<path id="&lt;Path&gt;" class="s0" d="m31.9 64.7h87"/>
		<path id="&lt;Path&gt;" class="s0" d="m75.4 40.1h31.1"/>
		<path id="&lt;Path&gt;" class="s0" d="m40 51.8h17.3"/>
		<path id="&lt;Path&gt;" class="s0" d="m69.4 52.1h43.1"/>
		<path id="&lt;Path&gt;" class="s0" d="m34.1 113.5h83.1"/>
	</g>
</svg>