<svg version="1.2" xmlns="http://www.w3.org/2000/svg" viewBox="0 0 150 150" width="500" height="500">
	<title>Weather_Icons24-ai</title>
	<style>
		.s0 { fill: none;stroke: #ffffff;stroke-linecap: round;stroke-linejoin: round;stroke-width: 6 } 
		.s1 { fill: #ffffff } 
		.s2 { fill: #ffffff;stroke: #ffffff;stroke-linecap: round;stroke-linejoin: round;stroke-width: 2 } 
		.s3 { fill: none;stroke: #ffffff;stroke-linecap: round;stroke-linejoin: round;stroke-width: 4 } 
	</style>
	<g id="Layer 1">
		<path id="&lt;Path&gt;" class="s0" d="m516.8 50c10 2.2 17.4 11.1 17.4 21.8 0 12.4-10 22.4-22.4 22.4h-72.3c-12.4 0-22.4-8.8-22.4-21.2 0-10.5 7.3-19.4 17.2-21.7-0.6-1.8-1-3.8-1-5.8 0-9.9 8.1-18 18.1-18 4.9 0 9.4 2 12.6 5.2 4.4-9.7 14.1-16.4 25.5-16.4 15.4 0 27.9 12.5 27.9 27.9q0 2-0.6 5.8z"/>
		<path id="&lt;Path&gt;" class="s1" d="m448.1 108.3q6.9 6.9 7.2 14.1c0 4-3.2 7.2-7.2 7.2-3.9 0-7.1-3.2-7.1-7.2q0.2-7.2 7.1-14.1z"/>
		<path id="&lt;Path&gt;" class="s1" d="m503.5 108.3q6.9 6.9 7.1 14.1c0 4-3.2 7.2-7.1 7.2-4 0-7.2-3.2-7.2-7.2q0.3-7.2 7.2-14.1z"/>
		<path id="&lt;Path&gt;" class="s1" d="m475.8 115q6.9 6.9 7.2 14.1c0 4-3.2 7.2-7.2 7.2-4 0-7.2-3.2-7.2-7.2q0.3-7.2 7.2-14.1z"/>
		<path id="&lt;Path&gt;" class="s0" d="m-283 68.1c10.3 2.3 18.1 11.6 18.1 22.7 0 12.8-10.4 23.2-23.2 23.2h-75.1c-12.8 0-23.2-9.2-23.2-22 0-10.9 7.6-20.1 17.8-22.6-0.6-1.8-0.9-3.8-0.9-5.9 0-10.3 8.3-18.7 18.7-18.7 5.1 0 9.7 2.1 13.1 5.4 4.5-10 14.6-17 26.4-17 15.9 0 28.9 13 28.9 28.9q0 2.1-0.6 6z"/>
		<path id="&lt;Path&gt;" class="s0" d="m-91.3 72.3c9.4 2.2 16.5 10.6 16.5 20.6 0 11.6-9.5 21.1-21.1 21.1h-68.1c-11.6 0-21.1-8.3-21.1-19.9 0-10 6.9-18.3 16.2-20.5-0.6-1.7-0.9-3.6-0.9-5.5 0-9.3 7.6-16.9 17-16.9 4.6 0 8.8 1.9 11.9 4.9 4.1-9.1 13.3-15.4 23.9-15.4 14.5 0 26.3 11.7 26.3 26.2q0 1.9-0.6 5.4z"/>
		<path id="&lt;Path&gt;" class="s0" d="m-108.5 42.1c3.9-4.3 9.1-7.4 15.2-8.5 14.4-2.5 28.2 7.1 30.7 21.5 2.1 11.9-4.1 23.4-14.4 28.4"/>
		<path id="&lt;Path&gt;" class="s0" d="m291 79.9c7.7 1.7 13.5 8.6 13.5 16.8 0 9.5-7.8 17.3-17.3 17.3h-55.7c-9.6 0-17.3-6.8-17.3-16.3 0-8.2 5.7-15 13.3-16.8q-0.7-2.1-0.8-4.4c0-7.7 6.3-13.9 13.9-13.9 3.8 0 7.3 1.5 9.8 4 3.4-7.5 10.9-12.6 19.6-12.6 11.8 0 21.5 9.6 21.5 21.5q0 1.5-0.5 4.4z"/>
		<path id="&lt;Path&gt;" class="s0" d="m276.9 55.1c3.2-3.5 7.5-6 12.5-6.9 11.7-2.1 23 5.8 25.1 17.6 1.7 9.7-3.4 19.1-11.8 23.2"/>
		<g id="&lt;Group&gt;">
			<circle id="&lt;Path&gt;" class="s0" cx="75.8" cy="75.6" r="33.1"/>
			<path id="&lt;Path&gt;" class="s0" d="m75.8 26.5v-10.5"/>
			<path id="&lt;Path&gt;" class="s0" d="m16.3 75.6h10.5"/>
			<path id="&lt;Path&gt;" class="s0" d="m110.4 110.3l8.2 8.2"/>
			<path id="&lt;Path&gt;" class="s0" d="m32.9 32.8l8.2 8.2"/>
			<path id="&lt;Path&gt;" class="s0" d="m41.1 110.3l-8.2 8.2"/>
			<path id="&lt;Path&gt;" class="s0" d="m118.6 32.8l-8.2 8.2"/>
			<g id="&lt;Group&gt;">
				<path id="&lt;Path&gt;" class="s0" d="m110.4 41l8.2-8.2"/>
				<path id="&lt;Path&gt;" class="s0" d="m32.9 118.5l8.2-8.2"/>
				<path id="&lt;Path&gt;" class="s0" d="m110.3 110.4l8.2 8.2"/>
				<path id="&lt;Path&gt;" class="s0" d="m32.8 32.9l8.2 8.2"/>
				<path id="&lt;Path&gt;" class="s0" d="m75.7 124.7v10.4"/>
				<path id="&lt;Path&gt;" class="s0" d="m75.7 16.3v10.4"/>
				<path id="&lt;Path&gt;" class="s0" d="m26.7 75.7h-10.5"/>
				<path id="&lt;Path&gt;" class="s0" d="m135.1 75.7h-10.5"/>
			</g>
		</g>
		<path id="&lt;Path&gt;" class="s0" d="m293.2 33.2l-0.1-8.4"/>
		<path id="&lt;Path&gt;" class="s0" d="m328.7 72.8h8.4"/>
		<path id="&lt;Path&gt;" class="s0" d="m320 43.9l6-5.9"/>
		<path id="&lt;Path&gt;" class="s0" d="m264.2 43.9l-5.9-5.9"/>
		<path id="&lt;Path&gt;" class="s0" d="m322.7 103.3l-6-6"/>
		<path id="&lt;Path&gt;" class="s2" d="m690.1 95.5l-9 13.2 17.1 0.1-48.6 26.8 16.4-21.5-14.2-0.2 14.8-18.4z"/>
		<path id="&lt;Path&gt;" class="s0" d="m718.1 47.3c10.3 2.3 18 11.5 18 22.5 0 12.7-10.4 23.1-23.1 23.1h-74.7c-12.7 0-23.1-9.1-23.1-21.8 0-11 7.6-20.1 17.8-22.5-0.7-1.9-1-3.9-1-5.9 0-10.3 8.3-18.6 18.6-18.6 5.1 0 9.7 2 13.1 5.3 4.5-9.9 14.5-16.9 26.2-16.9 15.9 0 28.8 12.9 28.8 28.8q0 2.1-0.6 6z"/>
		<path id="&lt;Path&gt;" class="s0" d="m238.2 303.5c-12.4 0-22.4-8.8-22.4-21.2 0-10.6 7.3-19.4 17.2-21.8-0.6-1.8-1-3.7-1-5.7 0-10 8.1-18 18.1-18 4.9 0 9.4 2 12.6 5.2 4.4-9.7 14.1-16.4 25.4-16.4 15.5 0 27.9 12.5 27.9 27.9q0 2-0.6 5.8v-0.1c10 2.3 17.5 11.2 17.5 21.9 0 12.3-10 22.4-22.4 22.4"/>
		<g id="&lt;Group&gt;">
			<path id="&lt;Path&gt;" class="s3" d="m274.3 278.7v49.5"/>
			<path id="&lt;Path&gt;" class="s3" d="m299.1 303.5h-49.5"/>
			<path id="&lt;Path&gt;" class="s3" d="m253.6 296.3l7.2 7.2-7.2 7.1"/>
			<path id="&lt;Path&gt;" class="s3" d="m295.1 310.6l-7.2-7.1 7.2-7.2"/>
			<path id="&lt;Path&gt;" class="s3" d="m267.2 324.2l7.1-7.2 7.2 7.2"/>
			<path id="&lt;Path&gt;" class="s3" d="m281.5 282.7l-7.2 7.2-7.1-7.2"/>
			<path id="&lt;Path&gt;" class="s3" d="m291.8 286l-35 35"/>
			<path id="&lt;Path&gt;" class="s3" d="m291.8 321l-35-35"/>
		</g>
		<path id="&lt;Path&gt;" class="s0" d="m107.7 275.1q0.1 0.3 0.1 0.5c0 18.3-14.9 33.1-33.2 33.1-18.2 0-33.1-14.8-33.1-33.1 0-17 12.8-30.9 29.2-32.9-4.1 4.5-6.7 10.4-6.7 16.9 0 13.6 11 24.6 24.6 24.6 7.8 0 14.6-3.5 19.1-9.1z"/>
		<path id="&lt;Path&gt;" class="s0" d="m502.8 271c8.8 2 15.4 9.8 15.4 19.2 0 10.9-8.9 19.8-19.8 19.8h-63.7c-10.9 0-19.8-7.8-19.8-18.7 0-9.3 6.5-17.1 15.2-19.2q-0.8-2.4-0.8-5c0-8.8 7.1-15.9 15.8-15.9 4.4 0 8.3 1.7 11.2 4.6 3.9-8.6 12.4-14.5 22.4-14.5 13.6 0 24.6 11 24.6 24.6q0 1.8-0.5 5.1z"/>
		<path id="&lt;Path&gt;" class="s0" d="m483.1 239.2c0-13.1 9.8-21.9 22.5-23.4-3.2 3.4-5.2 7.9-5.2 13 0 10.5 8.6 19 19.1 19 6 0 11.3-2.7 14.8-7q0 0.2 0 0.4c0 14.1-13.5 25.6-27.6 25.6"/>
		<path id="&lt;Path&gt;" class="s0" d="m716.8 254c10 2.2 17.4 11.1 17.4 21.8 0 12.4-10 22.4-22.4 22.4h-72.3c-12.4 0-22.4-8.8-22.4-21.2 0-10.5 7.3-19.4 17.2-21.7-0.6-1.8-1-3.8-1-5.8 0-9.9 8.1-18 18.1-18 4.9 0 9.4 2 12.6 5.2 4.4-9.7 14.1-16.4 25.5-16.4 15.4 0 27.9 12.5 27.9 27.9q0 2-0.6 5.8z"/>
		<circle id="&lt;Path&gt;" class="s2" cx="649.3" cy="313.8" r="3.8"/>
		<circle id="&lt;Path&gt;" class="s2" cx="676.9" cy="313.8" r="3.8"/>
		<circle id="&lt;Path&gt;" class="s2" cx="704.5" cy="313.8" r="3.8"/>
		<circle id="&lt;Path&gt;" class="s2" cx="663.3" cy="327.8" r="3.8"/>
		<circle id="&lt;Path&gt;" class="s2" cx="690.9" cy="327.8" r="3.8"/>
		<path id="&lt;Path&gt;" class="s0" d="m-81.7 250.1c10.3 2.3 18.1 11.6 18.1 22.7 0 12.8-10.4 23.2-23.2 23.2h-75.1c-12.8 0-23.2-9.2-23.2-22 0-10.9 7.6-20.1 17.9-22.6-0.7-1.8-1-3.8-1-5.9 0-10.3 8.3-18.7 18.7-18.7 5.1 0 9.7 2.1 13.1 5.4 4.6-10 14.6-17 26.4-17 15.9 0 28.9 13 28.9 28.9q0 2.1-0.6 6z"/>
		<path id="&lt;Path&gt;" class="s2" d="m286.3 500.2l-7.7 11.2h14.5l-41.2 22.9 13.9-18.4-12-0.1 12.5-15.6z"/>
		<path id="&lt;Path&gt;" class="s0" d="m316.8 451.8c10.3 2.3 18 11.5 18 22.5 0 12.7-10.4 23.1-23.1 23.1h-74.7c-12.7 0-23.1-9.1-23.1-21.8 0-11 7.6-20.1 17.8-22.5-0.7-1.9-1-3.9-1-5.9 0-10.3 8.3-18.6 18.6-18.6 5.1 0 9.7 2 13 5.3h0.1c4.5-9.9 14.5-16.9 26.2-16.9 15.9 0 28.8 12.9 28.8 28.8q0 2.1-0.6 6z"/>
		<circle id="&lt;Path&gt;" class="s2" cx="239.3" cy="511.8" r="3.8"/>
		<circle id="&lt;Path&gt;" class="s2" cx="308.5" cy="511.8" r="3.8"/>
		<circle id="&lt;Path&gt;" class="s2" cx="288.5" cy="529.8" r="3.8"/>
		<path id="&lt;Path&gt;" class="s0" d="m-158.5 313l10.9 11"/>
		<path id="&lt;Path&gt;" class="s0" d="m-158.5 324.2l11-11"/>
		<path id="&lt;Path&gt;" class="s0" d="m-102.6 312.9l10.9 10.9"/>
		<path id="&lt;Path&gt;" class="s0" d="m-102.6 324.1l11.1-11.1"/>
		<path id="&lt;Path&gt;" class="s0" d="m-131.2 324.6l10.9 10.9"/>
		<path id="&lt;Path&gt;" class="s0" d="m-131.2 335.8l11.1-11"/>
		<path id="&lt;Path&gt;" class="s0" d="m-93.3 458.2c9.4 2.1 16.4 10.5 16.4 20.5 0 11.6-9.4 21.1-21 21.1h-68.1c-11.7 0-21.1-8.3-21.1-19.9 0-10 6.9-18.3 16.2-20.5-0.6-1.7-0.9-3.5-0.9-5.4 0-9.4 7.6-17 17-17 4.6 0 8.8 1.9 11.9 4.9 4.1-9.1 13.3-15.4 23.9-15.4 14.5 0 26.3 11.7 26.3 26.2q0 1.9-0.6 5.5z"/>
		<path id="&lt;Path&gt;" class="s0" d="m-110.5 427.9c3.8-4.3 9.1-7.4 15.2-8.5 14.4-2.5 28.1 7.1 30.7 21.5 2.1 11.9-4.1 23.4-14.5 28.4"/>
		<circle id="&lt;Path&gt;" class="s2" cx="-159.6" cy="519" r="3.8"/>
		<circle id="&lt;Path&gt;" class="s2" cx="-132" cy="519" r="3.8"/>
		<circle id="&lt;Path&gt;" class="s2" cx="-104.4" cy="519" r="3.8"/>
		<circle id="&lt;Path&gt;" class="s2" cx="-145.6" cy="533" r="3.8"/>
		<circle id="&lt;Path&gt;" class="s2" cx="-118" cy="533" r="3.8"/>
		<path id="&lt;Path&gt;" class="s0" d="m34.3 501.5c-11.7 0-21.1-8.3-21.1-19.9 0-10 6.9-18.3 16.2-20.5-0.6-1.7-0.9-3.5-0.9-5.4 0-9.4 7.6-17 17-17 4.6 0 8.8 1.9 11.9 4.9 4.1-9.1 13.3-15.4 23.9-15.4 14.5 0 26.3 11.8 26.3 26.3q0 1.8-0.6 5.4c9.4 2.1 16.4 10.5 16.4 20.5 0 11.7-9.4 21.1-21 21.1"/>
		<path id="&lt;Path&gt;" class="s0" d="m89.8 429.6c3.8-4.3 9.1-7.4 15.2-8.4 14.4-2.6 28.1 7 30.7 21.4 2.1 11.9-4.1 23.4-14.5 28.5"/>
		<g id="&lt;Group&gt;">
			<path id="&lt;Path&gt;" class="s3" d="m68.3 476.8v49.5"/>
			<path id="&lt;Path&gt;" class="s3" d="m93.1 501.5h-49.5"/>
			<path id="&lt;Path&gt;" class="s3" d="m47.6 494.3l7.1 7.2-7.1 7.2"/>
			<path id="&lt;Path&gt;" class="s3" d="m89.1 508.7l-7.2-7.2 7.2-7.2"/>
			<path id="&lt;Path&gt;" class="s3" d="m61.2 522.3l7.1-7.2 7.2 7.2"/>
			<path id="&lt;Path&gt;" class="s3" d="m75.5 480.8l-7.2 7.1-7.1-7.1"/>
			<path id="&lt;Path&gt;" class="s3" d="m85.8 484l-35 35"/>
			<path id="&lt;Path&gt;" class="s3" d="m85.8 519l-35-35"/>
		</g>
		<path id="&lt;Path&gt;" class="s0" d="m494.8 466.2c7 1.6 12.1 7.8 12.1 15.2 0 8.6-6.9 15.5-15.5 15.5h-50.2c-8.6 0-15.6-6.1-15.6-14.6 0-7.4 5.1-13.5 12-15.2q-0.7-1.8-0.7-3.9c0-7 5.6-12.6 12.5-12.6 3.5 0 6.6 1.4 8.8 3.7 3.1-6.7 9.8-11.4 17.7-11.4 10.7 0 19.3 8.7 19.3 19.4q0 1.3-0.4 4z"/>
		<path id="&lt;Path&gt;" class="s0" d="m476.8 439.4c0-13.1 9.9-21.9 22.6-23.4-3.2 3.4-5.2 8-5.2 13.1 0 10.5 8.5 19 19 19 6 0 11.3-2.7 14.8-7q0 0.2 0 0.3c0 14.2-13.5 25.7-27.6 25.7"/>
		<circle id="&lt;Path&gt;" class="s2" cx="438.7" cy="513" r="3.8"/>
		<circle id="&lt;Path&gt;" class="s2" cx="466.3" cy="513" r="3.8"/>
		<circle id="&lt;Path&gt;" class="s2" cx="493.9" cy="513" r="3.8"/>
		<circle id="&lt;Path&gt;" class="s2" cx="452.7" cy="527" r="3.8"/>
		<circle id="&lt;Path&gt;" class="s2" cx="480.3" cy="527" r="3.8"/>
		<path id="&lt;Path&gt;" class="s0" d="m694.9 466.6c6.9 1.6 12.1 7.8 12.1 15.2 0 8.6-7 15.5-15.5 15.5h-50.3c-8.5 0-15.5-6.1-15.5-14.7 0-7.3 5.1-13.5 11.9-15.1q-0.6-1.9-0.6-4c0-6.9 5.6-12.5 12.5-12.5 3.4 0 6.5 1.4 8.8 3.6 3-6.7 9.8-11.3 17.6-11.3 10.7 0 19.4 8.6 19.4 19.3q0 1.4-0.4 4z"/>
		<path id="&lt;Path&gt;" class="s0" d="m676.9 439.8c0-13.1 9.8-21.9 22.5-23.4-3.2 3.4-5.1 8-5.1 13 0 10.6 8.5 19.1 19 19.1 6 0 11.3-2.8 14.8-7q0 0.1 0 0.3c0 14.2-13.5 25.6-27.6 25.6"/>
		<path id="&lt;Path&gt;" class="s1" d="m644.4 509.9q5.4 5.5 5.6 11.2c0 3.1-2.5 5.6-5.6 5.6-3.1 0-5.7-2.5-5.7-5.6q0.3-5.7 5.7-11.2z"/>
		<path id="&lt;Path&gt;" class="s1" d="m687.9 509.9q5.4 5.5 5.6 11.2c0 3.1-2.5 5.6-5.6 5.6-3.1 0-5.7-2.5-5.7-5.6q0.3-5.7 5.7-11.2z"/>
		<path id="&lt;Path&gt;" class="s1" d="m666.1 515.2q5.4 5.4 5.7 11.2c0 3.1-2.6 5.6-5.7 5.6-3.1 0-5.6-2.5-5.6-5.6q0.2-5.8 5.6-11.2z"/>
		<path id="&lt;Path&gt;" class="s0" d="m-307.7 466.9c7 1.5 12.2 7.7 12.2 15.2 0 8.5-7 15.5-15.6 15.5h-50.2c-8.6 0-15.5-6.1-15.5-14.7 0-7.3 5-13.5 11.9-15.1q-0.7-1.9-0.7-4c0-6.9 5.6-12.5 12.5-12.5 3.5 0 6.6 1.4 8.8 3.6 3.1-6.7 9.8-11.4 17.7-11.4 10.7 0 19.3 8.7 19.3 19.4q0 1.4-0.4 4z"/>
		<path id="&lt;Path&gt;" class="s0" d="m-325.7 440.1c0-13.1 9.9-21.9 22.6-23.4-3.2 3.4-5.2 8-5.2 13 0 10.5 8.5 19.1 19 19.1 6 0 11.3-2.8 14.8-7.1q0 0.2 0 0.4c0 14.1-13.4 25.6-27.6 25.6"/>
		<path id="&lt;Path&gt;" class="s2" d="m-323.3 498.9l-7.6 11.2h14.4l-41.2 22.8 13.9-18.3-12-0.1 12.5-15.6z"/>
		<g id="&lt;Group&gt;">
			<path id="&lt;Path&gt;" class="s0" d="m-351 713.6c-4.8-5.8-7.7-13.2-7.7-21.2 0-18.3 14.8-33.1 33.1-33.1 18.3 0 33.1 14.8 33.1 33.1 0 8-2.9 15.4-7.7 21.2"/>
			<path id="&lt;Path&gt;" class="s0" d="m-325.6 645.2v-10.4"/>
			<path id="&lt;Path&gt;" class="s0" d="m-385 692.4h10.4"/>
			<path id="&lt;Path&gt;" class="s0" d="m-368.4 649.5l8.2 8.2"/>
			<path id="&lt;Path&gt;" class="s0" d="m-282.8 649.5l-8.2 8.2"/>
			<g id="&lt;Group&gt;">
				<path id="&lt;Path&gt;" class="s0" d="m-290.9 657.7l8.2-8.2"/>
				<path id="&lt;Path&gt;" class="s0" d="m-368.5 649.6l8.2 8.2"/>
				<path id="&lt;Path&gt;" class="s0" d="m-325.7 633.1v10.4"/>
				<path id="&lt;Path&gt;" class="s0" d="m-374.7 692.5h-10.4"/>
				<path id="&lt;Path&gt;" class="s0" d="m-266.3 692.5h-10.4"/>
			</g>
			<path id="&lt;Path&gt;" class="s0" d="m-379.9 729.6h108.4"/>
		</g>
		<path id="&lt;Path&gt;" class="s0" d="m-139.5 653c4.5-2.4 9.7-3.7 15.2-3.7 18.2 0 33.1 14.8 33.1 33.1 0 3.8-0.7 7.5-1.9 10.9"/>
		<path id="&lt;Path&gt;" class="s0" d="m117 656.3c10.3 2.3 18.1 11.5 18.1 22.6 0 12.8-10.4 23.2-23.2 23.2h-75.1c-12.8 0-23.2-9.1-23.2-21.9 0-11 7.6-20.2 17.8-22.6-0.6-1.9-0.9-3.9-0.9-6 0-10.3 8.3-18.6 18.7-18.6 5.1 0 9.7 2 13.1 5.3 4.5-10 14.6-16.9 26.3-16.9 16 0 29 12.9 29 28.9q0 2-0.6 6z"/>
		<path id="&lt;Path&gt;" class="s0" d="m43.6 716.4l-2 14.2"/>
		<path id="&lt;Path&gt;" class="s0" d="m64.3 716.4l-4 28.2"/>
		<path id="&lt;Path&gt;" class="s0" d="m85.8 716.4l-4 28.2"/>
		<path id="&lt;Path&gt;" class="s0" d="m106.6 716.4l-2 14.2"/>
		<path id="&lt;Path&gt;" class="s0" d="m642.5 715.6l-1.6 11"/>
		<path id="&lt;Path&gt;" class="s0" d="m658.6 715.6l-3.1 21.8"/>
		<path id="&lt;Path&gt;" class="s0" d="m675.2 715.6l-3.1 21.8"/>
		<path id="&lt;Path&gt;" class="s0" d="m691.3 715.6l-1.5 11"/>
		<path id="&lt;Path&gt;" class="s0" d="m435.5 715.6l-1.6 11"/>
		<path id="&lt;Path&gt;" class="s0" d="m451.5 715.6l-3.1 21.8"/>
		<path id="&lt;Path&gt;" class="s0" d="m468.2 715.6l-3.1 21.8"/>
		<path id="&lt;Path&gt;" class="s0" d="m484.3 715.6l-1.6 11"/>
		<path id="&lt;Path&gt;" class="s0" d="m243.5 715.6l-1.5 11"/>
		<path id="&lt;Path&gt;" class="s0" d="m259.6 715.6l-3.1 21.8"/>
		<path id="&lt;Path&gt;" class="s0" d="m276.3 715.6l-3.1 21.8"/>
		<path id="&lt;Path&gt;" class="s0" d="m292.4 715.6l-1.6 11"/>
		<path id="&lt;Path&gt;" class="s0" d="m306.7 660.5c9.4 2.1 16.4 10.5 16.4 20.5 0 11.7-9.4 21.1-21 21.1h-68.1c-11.7 0-21.1-8.3-21.1-19.9 0-10 6.9-18.3 16.2-20.5-0.6-1.7-0.9-3.5-0.9-5.4 0-9.4 7.6-17 17-17 4.6 0 8.8 1.9 11.9 4.9 4.1-9.1 13.3-15.4 23.9-15.4 14.5 0 26.3 11.8 26.3 26.3q0 1.8-0.6 5.4z"/>
		<path id="&lt;Path&gt;" class="s0" d="m289.5 630.2c3.8-4.3 9.1-7.4 15.2-8.4 14.4-2.6 28.1 7 30.7 21.4 2.1 12-4.1 23.4-14.5 28.5"/>
		<path id="&lt;Path&gt;" class="s0" d="m491.8 668.2c7.7 1.8 13.5 8.7 13.5 16.9 0 9.5-7.8 17.2-17.3 17.2h-55.7c-9.6 0-17.3-6.8-17.3-16.3 0-8.1 5.7-15 13.3-16.8q-0.8-2.1-0.8-4.4c0-7.7 6.3-13.9 13.9-13.9 3.8 0 7.3 1.6 9.8 4 3.4-7.4 10.9-12.6 19.6-12.6 11.8 0 21.5 9.6 21.5 21.5q0 1.5-0.5 4.4z"/>
		<path id="&lt;Path&gt;" class="s0" d="m477.7 643.5c3.2-3.5 7.5-6.1 12.5-7 11.7-2 23 5.8 25.1 17.6 1.7 9.8-3.4 19.2-11.8 23.3"/>
		<path id="&lt;Path&gt;" class="s0" d="m494 621.6l-0.1-8.5"/>
		<path id="&lt;Path&gt;" class="s0" d="m529.5 661.2l8.4-0.1"/>
		<path id="&lt;Path&gt;" class="s0" d="m520.8 632.3l6-6"/>
		<path id="&lt;Path&gt;" class="s0" d="m465 632.3l-5.9-6"/>
		<path id="&lt;Path&gt;" class="s0" d="m523.4 691.7l-5.9-6"/>
		<path id="&lt;Path&gt;" class="s0" d="m694.8 670.9c7 1.6 12.2 7.8 12.2 15.2 0 8.5-7 15.5-15.6 15.5h-50.2c-8.6 0-15.5-6.1-15.5-14.7 0-7.3 5.1-13.5 11.9-15.1q-0.6-1.9-0.7-4c0-6.9 5.6-12.5 12.5-12.5 3.5 0 6.6 1.4 8.8 3.6 3.1-6.7 9.8-11.4 17.7-11.4 10.7 0 19.4 8.7 19.4 19.4q0 1.4-0.5 4z"/>
		<path id="&lt;Path&gt;" class="s0" d="m676.8 644.1c0-13.1 9.9-21.9 22.6-23.4-3.2 3.4-5.2 8-5.2 13 0 10.5 8.5 19.1 19.1 19.1 5.9 0 11.2-2.8 14.7-7.1q0 0.2 0 0.4c0 14.2-13.4 25.6-27.6 25.6"/>
		<path id="&lt;Path&gt;" class="s0" d="m-75.7 681.6c0 0.2 0 0.4 0 0.6 0 26.9-21.8 48.7-48.6 48.7-26.9 0-48.7-21.8-48.7-48.7 0-24.9 18.7-45.4 42.9-48.3-6.1 6.5-9.9 15.2-9.9 24.8 0 20 16.2 36.2 36.2 36.2 11.4 0 21.5-5.2 28.1-13.3z"/>
		<path id="&lt;Path&gt;" class="s0" d="m-375.9 299.5h101.1"/>
		<path id="&lt;Path&gt;" class="s0" d="m-382.3 287.2h113.3"/>
		<path id="&lt;Path&gt;" class="s0" d="m-378.2 274.9h105.8"/>
		<path id="&lt;Path&gt;" class="s0" d="m-368.1 262.7h87"/>
		<path id="&lt;Path&gt;" class="s0" d="m-324.6 238.1h31.1"/>
		<path id="&lt;Path&gt;" class="s0" d="m-360 249.8h17.3"/>
		<path id="&lt;Path&gt;" class="s0" d="m-330.6 250.1h43.1"/>
		<path id="&lt;Path&gt;" class="s0" d="m-365.9 311.5h83.1"/>
	</g>
</svg>