<svg version="1.2" xmlns="http://www.w3.org/2000/svg" viewBox="0 0 150 150" width="500" height="500">
	<title>Weather_Icons24-ai</title>
	<style>
		.s0 { fill: none;stroke: #ffffff;stroke-linecap: round;stroke-linejoin: round;stroke-width: 6 } 
		.s1 { fill: #ffffff } 
		.s2 { fill: #ffffff;stroke: #ffffff;stroke-linecap: round;stroke-linejoin: round;stroke-width: 2 } 
		.s3 { fill: none;stroke: #ffffff;stroke-linecap: round;stroke-linejoin: round;stroke-width: 4 } 
	</style>
	<g id="Layer 1">
		<path id="&lt;Path&gt;" class="s0" d="m918.8 48c10 2.2 17.4 11.1 17.4 21.8 0 12.4-10 22.4-22.4 22.4h-72.3c-12.4 0-22.4-8.8-22.4-21.2 0-10.5 7.3-19.4 17.2-21.7-0.6-1.8-1-3.8-1-5.8 0-9.9 8.1-18 18.1-18 4.9 0 9.4 2 12.6 5.2 4.4-9.7 14.1-16.4 25.5-16.4 15.4 0 27.9 12.5 27.9 27.9q0 2-0.6 5.8z"/>
		<path id="&lt;Path&gt;" class="s1" d="m850.1 106.3q6.9 6.9 7.2 14.1c0 4-3.2 7.2-7.2 7.2-3.9 0-7.1-3.2-7.1-7.2q0.2-7.2 7.1-14.1z"/>
		<path id="&lt;Path&gt;" class="s1" d="m905.5 106.3q6.9 6.9 7.1 14.1c0 4-3.2 7.2-7.1 7.2-4 0-7.2-3.2-7.2-7.2q0.3-7.2 7.2-14.1z"/>
		<path id="&lt;Path&gt;" class="s1" d="m877.8 113q6.9 6.9 7.2 14.1c0 4-3.2 7.2-7.2 7.2-4 0-7.2-3.2-7.2-7.2q0.3-7.2 7.2-14.1z"/>
		<path id="&lt;Path&gt;" class="s0" d="m119 66.1c10.3 2.3 18.1 11.6 18.1 22.7 0 12.8-10.4 23.2-23.2 23.2h-75.1c-12.8 0-23.2-9.2-23.2-22 0-10.9 7.6-20.1 17.8-22.6-0.6-1.8-0.9-3.8-0.9-5.9 0-10.3 8.3-18.7 18.7-18.7 5.1 0 9.7 2.1 13.1 5.4 4.5-10 14.6-17 26.4-17 15.9 0 28.9 13 28.9 28.9q0 2.1-0.6 6z"/>
		<path id="&lt;Path&gt;" class="s0" d="m310.7 70.3c9.4 2.2 16.5 10.6 16.5 20.6 0 11.6-9.5 21.1-21.1 21.1h-68.1c-11.6 0-21.1-8.3-21.1-19.9 0-10 6.9-18.3 16.2-20.5-0.6-1.7-0.9-3.6-0.9-5.5 0-9.3 7.6-16.9 17-16.9 4.6 0 8.8 1.9 11.9 4.9 4.1-9.1 13.3-15.4 23.9-15.4 14.5 0 26.3 11.7 26.3 26.2q0 1.9-0.6 5.4z"/>
		<path id="&lt;Path&gt;" class="s0" d="m293.5 40.1c3.9-4.3 9.1-7.4 15.2-8.5 14.4-2.5 28.2 7.1 30.7 21.5 2.1 11.9-4.1 23.4-14.4 28.4"/>
		<path id="&lt;Path&gt;" class="s0" d="m693 77.9c7.7 1.7 13.5 8.6 13.5 16.8 0 9.5-7.8 17.3-17.3 17.3h-55.7c-9.6 0-17.3-6.8-17.3-16.3 0-8.2 5.7-15 13.3-16.8q-0.7-2.1-0.8-4.4c0-7.7 6.3-13.9 13.9-13.9 3.8 0 7.3 1.5 9.8 4 3.4-7.5 10.9-12.6 19.6-12.6 11.8 0 21.5 9.6 21.5 21.5q0 1.5-0.5 4.4z"/>
		<path id="&lt;Path&gt;" class="s0" d="m678.9 53.1c3.2-3.5 7.5-6 12.5-6.9 11.7-2.1 23 5.8 25.1 17.6 1.7 9.7-3.4 19.1-11.8 23.2"/>
		<g id="&lt;Group&gt;">
			<circle id="&lt;Path&gt;" class="s0" cx="477.8" cy="73.6" r="33.1"/>
			<path id="&lt;Path&gt;" class="s0" d="m477.8 24.5v-10.5"/>
			<path id="&lt;Path&gt;" class="s0" d="m418.3 73.6h10.5"/>
			<path id="&lt;Path&gt;" class="s0" d="m512.4 108.3l8.2 8.2"/>
			<path id="&lt;Path&gt;" class="s0" d="m434.9 30.8l8.2 8.2"/>
			<path id="&lt;Path&gt;" class="s0" d="m443.1 108.3l-8.2 8.2"/>
			<path id="&lt;Path&gt;" class="s0" d="m520.6 30.8l-8.2 8.2"/>
			<g id="&lt;Group&gt;">
				<path id="&lt;Path&gt;" class="s0" d="m512.4 39l8.2-8.2"/>
				<path id="&lt;Path&gt;" class="s0" d="m434.9 116.5l8.2-8.2"/>
				<path id="&lt;Path&gt;" class="s0" d="m512.3 108.4l8.2 8.2"/>
				<path id="&lt;Path&gt;" class="s0" d="m434.8 30.9l8.2 8.2"/>
				<path id="&lt;Path&gt;" class="s0" d="m477.7 122.7v10.4"/>
				<path id="&lt;Path&gt;" class="s0" d="m477.7 14.3v10.4"/>
				<path id="&lt;Path&gt;" class="s0" d="m428.7 73.7h-10.5"/>
				<path id="&lt;Path&gt;" class="s0" d="m537.1 73.7h-10.5"/>
			</g>
		</g>
		<path id="&lt;Path&gt;" class="s0" d="m695.2 31.2l-0.1-8.4"/>
		<path id="&lt;Path&gt;" class="s0" d="m730.7 70.8h8.4"/>
		<path id="&lt;Path&gt;" class="s0" d="m722 41.9l6-5.9"/>
		<path id="&lt;Path&gt;" class="s0" d="m666.2 41.9l-5.9-5.9"/>
		<path id="&lt;Path&gt;" class="s0" d="m724.7 101.3l-6-6"/>
		<path id="&lt;Path&gt;" class="s2" d="m1092.1 93.5l-9 13.2 17.1 0.1-48.6 26.8 16.4-21.5-14.2-0.2 14.8-18.4z"/>
		<path id="&lt;Path&gt;" class="s0" d="m1120.1 45.3c10.3 2.3 18 11.5 18 22.5 0 12.7-10.4 23.1-23.1 23.1h-74.7c-12.7 0-23.1-9.1-23.1-21.8 0-11 7.6-20.1 17.8-22.5-0.7-1.9-1-3.9-1-5.9 0-10.3 8.3-18.6 18.6-18.6 5.1 0 9.7 2 13.1 5.3 4.5-9.9 14.5-16.9 26.2-16.9 15.9 0 28.8 12.9 28.8 28.8q0 2.1-0.6 6z"/>
		<path id="&lt;Path&gt;" class="s0" d="m640.2 301.5c-12.4 0-22.4-8.8-22.4-21.2 0-10.6 7.3-19.4 17.2-21.8-0.6-1.8-1-3.7-1-5.7 0-10 8.1-18 18.1-18 4.9 0 9.4 2 12.6 5.2 4.4-9.7 14.1-16.4 25.4-16.4 15.5 0 27.9 12.5 27.9 27.9q0 2-0.6 5.8v-0.1c10 2.3 17.5 11.2 17.5 21.9 0 12.3-10 22.4-22.4 22.4"/>
		<g id="&lt;Group&gt;">
			<path id="&lt;Path&gt;" class="s3" d="m676.3 276.7v49.5"/>
			<path id="&lt;Path&gt;" class="s3" d="m701.1 301.5h-49.5"/>
			<path id="&lt;Path&gt;" class="s3" d="m655.6 294.3l7.2 7.2-7.2 7.1"/>
			<path id="&lt;Path&gt;" class="s3" d="m697.1 308.6l-7.2-7.1 7.2-7.2"/>
			<path id="&lt;Path&gt;" class="s3" d="m669.2 322.2l7.1-7.2 7.2 7.2"/>
			<path id="&lt;Path&gt;" class="s3" d="m683.5 280.7l-7.2 7.2-7.1-7.2"/>
			<path id="&lt;Path&gt;" class="s3" d="m693.8 284l-35 35"/>
			<path id="&lt;Path&gt;" class="s3" d="m693.8 319l-35-35"/>
		</g>
		<path id="&lt;Path&gt;" class="s0" d="m509.7 273.1q0.1 0.3 0.1 0.5c0 18.3-14.9 33.1-33.2 33.1-18.2 0-33.1-14.8-33.1-33.1 0-17 12.8-30.9 29.2-32.9-4.1 4.5-6.7 10.4-6.7 16.9 0 13.6 11 24.6 24.6 24.6 7.8 0 14.6-3.5 19.1-9.1z"/>
		<path id="&lt;Path&gt;" class="s0" d="m904.8 269c8.8 2 15.4 9.8 15.4 19.2 0 10.9-8.9 19.8-19.8 19.8h-63.7c-10.9 0-19.8-7.8-19.8-18.7 0-9.3 6.5-17.1 15.2-19.2q-0.8-2.4-0.8-5c0-8.8 7.1-15.9 15.8-15.9 4.4 0 8.3 1.7 11.2 4.6 3.9-8.6 12.5-14.5 22.4-14.5 13.6 0 24.6 11 24.6 24.6q0 1.8-0.5 5.1z"/>
		<path id="&lt;Path&gt;" class="s0" d="m885.1 237.2c0-13.1 9.8-21.9 22.5-23.4-3.2 3.4-5.2 7.9-5.2 13 0 10.5 8.6 19 19.1 19 6 0 11.3-2.7 14.8-7q0 0.2 0 0.4c0 14.1-13.5 25.6-27.6 25.6"/>
		<path id="&lt;Path&gt;" class="s0" d="m1118.8 252c10 2.2 17.4 11.1 17.4 21.8 0 12.4-10 22.4-22.4 22.4h-72.3c-12.4 0-22.4-8.8-22.4-21.2 0-10.5 7.3-19.4 17.2-21.7-0.6-1.8-1-3.8-1-5.8 0-9.9 8.1-18 18.1-18 4.9 0 9.4 2 12.6 5.2 4.4-9.7 14.1-16.4 25.5-16.4 15.4 0 27.9 12.5 27.9 27.9q0 2-0.6 5.8z"/>
		<circle id="&lt;Path&gt;" class="s2" cx="1051.3" cy="311.8" r="3.8"/>
		<circle id="&lt;Path&gt;" class="s2" cx="1078.9" cy="311.8" r="3.8"/>
		<circle id="&lt;Path&gt;" class="s2" cx="1106.5" cy="311.8" r="3.8"/>
		<circle id="&lt;Path&gt;" class="s2" cx="1065.3" cy="325.8" r="3.8"/>
		<circle id="&lt;Path&gt;" class="s2" cx="1092.9" cy="325.8" r="3.8"/>
		<path id="&lt;Path&gt;" class="s0" d="m320.3 248.1c10.3 2.3 18.1 11.6 18.1 22.7 0 12.8-10.4 23.2-23.2 23.2h-75.1c-12.8 0-23.2-9.2-23.2-22 0-10.9 7.6-20.1 17.9-22.6-0.7-1.8-1-3.8-1-5.9 0-10.3 8.3-18.7 18.7-18.7 5.1 0 9.7 2.1 13.1 5.4 4.6-10 14.6-17 26.4-17 15.9 0 28.9 13 28.9 28.9q0 2.1-0.6 6z"/>
		<path id="&lt;Path&gt;" class="s2" d="m688.3 498.2l-7.7 11.2h14.5l-41.2 22.9 13.9-18.4-12-0.1 12.5-15.6z"/>
		<path id="&lt;Path&gt;" class="s0" d="m718.8 449.8c10.3 2.3 18 11.5 18 22.5 0 12.7-10.4 23.1-23.1 23.1h-74.7c-12.7 0-23.1-9.1-23.1-21.8 0-11 7.6-20.1 17.8-22.5-0.7-1.9-1-3.9-1-5.9 0-10.3 8.3-18.6 18.6-18.6 5.1 0 9.7 2 13 5.3h0.1c4.5-9.9 14.5-16.9 26.2-16.9 15.9 0 28.8 12.9 28.8 28.8q0 2.1-0.6 6z"/>
		<circle id="&lt;Path&gt;" class="s2" cx="641.3" cy="509.8" r="3.8"/>
		<circle id="&lt;Path&gt;" class="s2" cx="710.5" cy="509.8" r="3.8"/>
		<circle id="&lt;Path&gt;" class="s2" cx="690.5" cy="527.8" r="3.8"/>
		<path id="&lt;Path&gt;" class="s0" d="m243.5 311l10.9 11"/>
		<path id="&lt;Path&gt;" class="s0" d="m243.5 322.2l11-11"/>
		<path id="&lt;Path&gt;" class="s0" d="m299.4 310.9l10.9 10.9"/>
		<path id="&lt;Path&gt;" class="s0" d="m299.4 322.1l11.1-11.1"/>
		<path id="&lt;Path&gt;" class="s0" d="m270.8 322.6l10.9 10.9"/>
		<path id="&lt;Path&gt;" class="s0" d="m270.8 333.8l11.1-11"/>
		<path id="&lt;Path&gt;" class="s0" d="m308.7 456.2c9.4 2.1 16.4 10.5 16.4 20.5 0 11.6-9.4 21.1-21 21.1h-68.1c-11.7 0-21.1-8.3-21.1-19.9 0-10 6.9-18.3 16.2-20.5-0.6-1.7-0.9-3.5-0.9-5.4 0-9.4 7.6-17 17-17 4.6 0 8.8 1.9 11.9 4.9 4.1-9.1 13.3-15.4 23.9-15.4 14.5 0 26.3 11.7 26.3 26.2q0 1.9-0.6 5.5z"/>
		<path id="&lt;Path&gt;" class="s0" d="m291.5 425.9c3.8-4.3 9.1-7.4 15.2-8.5 14.4-2.5 28.1 7.1 30.7 21.5 2.1 11.9-4.1 23.4-14.5 28.4"/>
		<circle id="&lt;Path&gt;" class="s2" cx="242.4" cy="517" r="3.8"/>
		<circle id="&lt;Path&gt;" class="s2" cx="270" cy="517" r="3.8"/>
		<circle id="&lt;Path&gt;" class="s2" cx="297.6" cy="517" r="3.8"/>
		<circle id="&lt;Path&gt;" class="s2" cx="256.4" cy="531" r="3.8"/>
		<circle id="&lt;Path&gt;" class="s2" cx="284" cy="531" r="3.8"/>
		<path id="&lt;Path&gt;" class="s0" d="m436.3 499.5c-11.7 0-21.1-8.3-21.1-19.9 0-10 6.9-18.3 16.2-20.5-0.6-1.7-0.9-3.5-0.9-5.4 0-9.4 7.6-17 17-17 4.6 0 8.8 1.9 11.9 4.9 4.1-9.1 13.3-15.4 23.9-15.4 14.5 0 26.3 11.8 26.3 26.3q0 1.8-0.6 5.4c9.4 2.1 16.4 10.5 16.4 20.5 0 11.7-9.4 21.1-21 21.1"/>
		<path id="&lt;Path&gt;" class="s0" d="m491.8 427.6c3.8-4.3 9.1-7.4 15.2-8.4 14.4-2.6 28.1 7 30.7 21.4 2.1 11.9-4.1 23.4-14.5 28.5"/>
		<g id="&lt;Group&gt;">
			<path id="&lt;Path&gt;" class="s3" d="m470.3 474.8v49.5"/>
			<path id="&lt;Path&gt;" class="s3" d="m495.1 499.5h-49.5"/>
			<path id="&lt;Path&gt;" class="s3" d="m449.6 492.3l7.1 7.2-7.1 7.2"/>
			<path id="&lt;Path&gt;" class="s3" d="m491.1 506.7l-7.2-7.2 7.2-7.2"/>
			<path id="&lt;Path&gt;" class="s3" d="m463.2 520.3l7.1-7.2 7.2 7.2"/>
			<path id="&lt;Path&gt;" class="s3" d="m477.5 478.8l-7.2 7.1-7.1-7.1"/>
			<path id="&lt;Path&gt;" class="s3" d="m487.8 482l-35 35"/>
			<path id="&lt;Path&gt;" class="s3" d="m487.8 517l-35-35"/>
		</g>
		<path id="&lt;Path&gt;" class="s0" d="m896.8 464.2c7 1.6 12.1 7.8 12.1 15.2 0 8.6-6.9 15.5-15.5 15.5h-50.2c-8.6 0-15.6-6.1-15.6-14.6 0-7.4 5.1-13.5 12-15.2q-0.7-1.8-0.7-3.9c0-7 5.6-12.6 12.5-12.6 3.5 0 6.6 1.4 8.8 3.7 3.1-6.7 9.8-11.4 17.7-11.4 10.7 0 19.3 8.7 19.3 19.4q0 1.3-0.4 4z"/>
		<path id="&lt;Path&gt;" class="s0" d="m878.8 437.4c0-13.1 9.9-21.9 22.6-23.4-3.2 3.4-5.2 8-5.2 13.1 0 10.5 8.5 19 19 19 6 0 11.3-2.7 14.8-7q0 0.2 0 0.3c0 14.2-13.5 25.7-27.6 25.7"/>
		<circle id="&lt;Path&gt;" class="s2" cx="840.7" cy="511" r="3.8"/>
		<circle id="&lt;Path&gt;" class="s2" cx="868.3" cy="511" r="3.8"/>
		<circle id="&lt;Path&gt;" class="s2" cx="895.9" cy="511" r="3.8"/>
		<circle id="&lt;Path&gt;" class="s2" cx="854.7" cy="525" r="3.8"/>
		<circle id="&lt;Path&gt;" class="s2" cx="882.3" cy="525" r="3.8"/>
		<path id="&lt;Path&gt;" class="s0" d="m1096.9 464.6c6.9 1.6 12.1 7.8 12.1 15.2 0 8.6-7 15.5-15.5 15.5h-50.3c-8.5 0-15.5-6.1-15.5-14.7 0-7.3 5.1-13.5 11.9-15.1q-0.6-1.9-0.6-4c0-6.9 5.6-12.5 12.5-12.5 3.4 0 6.5 1.4 8.8 3.6 3-6.7 9.8-11.3 17.6-11.3 10.7 0 19.4 8.6 19.4 19.3q0 1.4-0.4 4z"/>
		<path id="&lt;Path&gt;" class="s0" d="m1078.9 437.8c0-13.1 9.8-21.9 22.5-23.4-3.2 3.4-5.2 8-5.2 13 0 10.6 8.6 19.1 19.1 19.1 6 0 11.3-2.8 14.8-7q0 0.1 0 0.3c0 14.2-13.5 25.6-27.6 25.6"/>
		<path id="&lt;Path&gt;" class="s1" d="m1046.4 507.9q5.4 5.5 5.6 11.2c0 3.1-2.5 5.6-5.6 5.6-3.1 0-5.7-2.5-5.7-5.6q0.3-5.7 5.7-11.2z"/>
		<path id="&lt;Path&gt;" class="s1" d="m1089.9 507.9q5.4 5.5 5.6 11.2c0 3.1-2.5 5.6-5.6 5.6-3.1 0-5.7-2.5-5.7-5.6q0.3-5.7 5.7-11.2z"/>
		<path id="&lt;Path&gt;" class="s1" d="m1068.1 513.2q5.4 5.4 5.7 11.2c0 3.1-2.6 5.6-5.7 5.6-3.1 0-5.6-2.5-5.6-5.6q0.2-5.8 5.6-11.2z"/>
		<path id="&lt;Path&gt;" class="s0" d="m94.3 464.9c7 1.5 12.2 7.7 12.2 15.2 0 8.5-7 15.5-15.6 15.5h-50.2c-8.6 0-15.5-6.1-15.5-14.7 0-7.3 5-13.5 11.9-15.1q-0.7-1.9-0.7-4c0-6.9 5.6-12.5 12.5-12.5 3.5 0 6.6 1.4 8.8 3.6 3.1-6.7 9.8-11.4 17.7-11.4 10.7 0 19.3 8.7 19.3 19.4q0 1.4-0.4 4z"/>
		<path id="&lt;Path&gt;" class="s0" d="m76.3 438.1c0-13.1 9.9-21.9 22.6-23.4-3.2 3.4-5.2 8-5.2 13 0 10.5 8.5 19.1 19 19.1 6 0 11.3-2.8 14.8-7.1q0 0.2 0 0.4c0 14.1-13.4 25.6-27.6 25.6"/>
		<path id="&lt;Path&gt;" class="s2" d="m78.7 496.9l-7.6 11.2h14.4l-41.2 22.8 13.9-18.3-12-0.1 12.5-15.6z"/>
		<g id="&lt;Group&gt;">
			<path id="&lt;Path&gt;" class="s0" d="m51 711.6c-4.8-5.8-7.7-13.2-7.7-21.2 0-18.3 14.8-33.1 33.1-33.1 18.3 0 33.1 14.8 33.1 33.1 0 8-2.9 15.4-7.7 21.2"/>
			<path id="&lt;Path&gt;" class="s0" d="m76.4 643.2v-10.4"/>
			<path id="&lt;Path&gt;" class="s0" d="m17 690.4h10.4"/>
			<path id="&lt;Path&gt;" class="s0" d="m33.6 647.5l8.2 8.2"/>
			<path id="&lt;Path&gt;" class="s0" d="m119.3 647.5l-8.3 8.2"/>
			<g id="&lt;Group&gt;">
				<path id="&lt;Path&gt;" class="s0" d="m111.1 655.7l8.2-8.2"/>
				<path id="&lt;Path&gt;" class="s0" d="m33.5 647.6l8.2 8.2"/>
				<path id="&lt;Path&gt;" class="s0" d="m76.3 631.1v10.4"/>
				<path id="&lt;Path&gt;" class="s0" d="m27.3 690.5h-10.4"/>
				<path id="&lt;Path&gt;" class="s0" d="m135.7 690.5h-10.4"/>
			</g>
			<path id="&lt;Path&gt;" class="s0" d="m22.1 727.6h108.4"/>
		</g>
		<path id="&lt;Path&gt;" class="s0" d="m262.5 651c4.5-2.4 9.7-3.7 15.2-3.7 18.2 0 33.1 14.8 33.1 33.1 0 3.8-0.7 7.5-1.9 10.9"/>
		<path id="&lt;Path&gt;" class="s0" d="m519 654.3c10.3 2.3 18.1 11.5 18.1 22.6 0 12.8-10.4 23.2-23.2 23.2h-75.1c-12.8 0-23.2-9.1-23.2-21.9 0-11 7.6-20.2 17.8-22.6-0.6-1.9-0.9-3.9-0.9-6 0-10.3 8.3-18.6 18.7-18.6 5.1 0 9.7 2 13.1 5.3 4.5-10 14.6-16.9 26.3-16.9 16 0 29 12.9 29 28.9q0 2-0.6 6z"/>
		<path id="&lt;Path&gt;" class="s0" d="m445.6 714.4l-2 14.2"/>
		<path id="&lt;Path&gt;" class="s0" d="m466.3 714.4l-4 28.2"/>
		<path id="&lt;Path&gt;" class="s0" d="m487.8 714.4l-4 28.2"/>
		<path id="&lt;Path&gt;" class="s0" d="m508.6 714.4l-2 14.2"/>
		<path id="&lt;Path&gt;" class="s0" d="m1044.5 713.6l-1.6 11"/>
		<path id="&lt;Path&gt;" class="s0" d="m1060.6 713.6l-3.1 21.8"/>
		<path id="&lt;Path&gt;" class="s0" d="m1077.2 713.6l-3.1 21.8"/>
		<path id="&lt;Path&gt;" class="s0" d="m1093.3 713.6l-1.5 11"/>
		<path id="&lt;Path&gt;" class="s0" d="m837.5 713.6l-1.6 11"/>
		<path id="&lt;Path&gt;" class="s0" d="m853.5 713.6l-3.1 21.8"/>
		<path id="&lt;Path&gt;" class="s0" d="m870.2 713.6l-3.1 21.8"/>
		<path id="&lt;Path&gt;" class="s0" d="m886.3 713.6l-1.6 11"/>
		<path id="&lt;Path&gt;" class="s0" d="m645.5 713.6l-1.5 11"/>
		<path id="&lt;Path&gt;" class="s0" d="m661.6 713.6l-3.1 21.8"/>
		<path id="&lt;Path&gt;" class="s0" d="m678.3 713.6l-3.1 21.8"/>
		<path id="&lt;Path&gt;" class="s0" d="m694.4 713.6l-1.6 11"/>
		<path id="&lt;Path&gt;" class="s0" d="m708.7 658.5c9.4 2.1 16.4 10.5 16.4 20.5 0 11.7-9.4 21.1-21 21.1h-68.1c-11.7 0-21.1-8.3-21.1-19.9 0-10 6.9-18.3 16.2-20.5-0.6-1.7-0.9-3.5-0.9-5.4 0-9.4 7.6-17 17-17 4.6 0 8.8 1.9 11.9 4.9 4.1-9.1 13.3-15.4 23.9-15.4 14.5 0 26.3 11.8 26.3 26.3q0 1.8-0.6 5.4z"/>
		<path id="&lt;Path&gt;" class="s0" d="m691.5 628.2c3.8-4.3 9.1-7.4 15.2-8.4 14.4-2.6 28.1 7 30.7 21.4 2.1 12-4.1 23.4-14.5 28.5"/>
		<path id="&lt;Path&gt;" class="s0" d="m893.8 666.2c7.7 1.8 13.5 8.7 13.5 16.9 0 9.5-7.8 17.2-17.3 17.2h-55.7c-9.6 0-17.3-6.8-17.3-16.3 0-8.1 5.7-15 13.3-16.8q-0.8-2.1-0.8-4.4c0-7.7 6.3-13.9 13.9-13.9 3.8 0 7.3 1.6 9.8 4 3.4-7.4 10.9-12.6 19.6-12.6 11.8 0 21.5 9.6 21.5 21.5q0 1.5-0.5 4.4z"/>
		<path id="&lt;Path&gt;" class="s0" d="m879.7 641.5c3.2-3.5 7.5-6.1 12.5-7 11.7-2 23 5.8 25.1 17.6 1.7 9.8-3.4 19.2-11.8 23.3"/>
		<path id="&lt;Path&gt;" class="s0" d="m896 619.6l-0.1-8.5"/>
		<path id="&lt;Path&gt;" class="s0" d="m931.5 659.2l8.4-0.1"/>
		<path id="&lt;Path&gt;" class="s0" d="m922.8 630.3l6-6"/>
		<path id="&lt;Path&gt;" class="s0" d="m867 630.3l-5.9-6"/>
		<path id="&lt;Path&gt;" class="s0" d="m925.4 689.7l-5.9-6"/>
		<path id="&lt;Path&gt;" class="s0" d="m1096.8 668.9c7 1.6 12.2 7.8 12.2 15.2 0 8.5-7 15.5-15.6 15.5h-50.2c-8.6 0-15.5-6.1-15.5-14.7 0-7.3 5.1-13.5 11.9-15.1q-0.6-1.9-0.7-4c0-6.9 5.6-12.5 12.5-12.5 3.5 0 6.6 1.4 8.8 3.6 3.1-6.7 9.8-11.4 17.7-11.4 10.7 0 19.4 8.7 19.4 19.4q0 1.4-0.5 4z"/>
		<path id="&lt;Path&gt;" class="s0" d="m1078.8 642.1c0-13.1 9.9-21.9 22.6-23.4-3.2 3.4-5.2 8-5.2 13 0 10.5 8.5 19.1 19.1 19.1 5.9 0 11.2-2.8 14.7-7.1q0 0.2 0 0.4c0 14.2-13.4 25.6-27.6 25.6"/>
		<path id="&lt;Path&gt;" class="s0" d="m326.3 679.6c0 0.2 0 0.4 0 0.6 0 26.9-21.8 48.7-48.6 48.7-26.9 0-48.7-21.8-48.7-48.7 0-24.9 18.7-45.4 42.9-48.3-6.1 6.5-9.9 15.2-9.9 24.8 0 20 16.2 36.2 36.2 36.2 11.4 0 21.5-5.2 28.1-13.3z"/>
		<path id="&lt;Path&gt;" class="s0" d="m26.1 297.5h101.1"/>
		<path id="&lt;Path&gt;" class="s0" d="m19.7 285.2h113.3"/>
		<path id="&lt;Path&gt;" class="s0" d="m23.8 272.9h105.8"/>
		<path id="&lt;Path&gt;" class="s0" d="m33.9 260.7h87"/>
		<path id="&lt;Path&gt;" class="s0" d="m77.4 236.1h31.1"/>
		<path id="&lt;Path&gt;" class="s0" d="m42 247.8h17.3"/>
		<path id="&lt;Path&gt;" class="s0" d="m71.4 248.1h43.1"/>
		<path id="&lt;Path&gt;" class="s0" d="m36.1 309.5h83.1"/>
	</g>
</svg>