<svg version="1.2" xmlns="http://www.w3.org/2000/svg" viewBox="0 0 150 150" width="500" height="500">
	<title>Weather_Icons24-ai</title>
	<style>
		.s0 { fill: none;stroke: #ffffff;stroke-linecap: round;stroke-linejoin: round;stroke-width: 6 } 
		.s1 { fill: #ffffff } 
		.s2 { fill: #ffffff;stroke: #ffffff;stroke-linecap: round;stroke-linejoin: round;stroke-width: 2 } 
		.s3 { fill: none;stroke: #ffffff;stroke-linecap: round;stroke-linejoin: round;stroke-width: 4 } 
	</style>
	<g id="Layer 1">
		<path id="&lt;Path&gt;" class="s0" d="m318.8-152c10 2.2 17.4 11.1 17.4 21.8 0 12.4-10 22.4-22.4 22.4h-72.3c-12.4 0-22.4-8.8-22.4-21.2 0-10.5 7.3-19.4 17.2-21.7-0.6-1.8-1-3.8-1-5.8 0-9.9 8.1-18 18.1-18 4.9 0 9.4 2 12.6 5.2 4.4-9.7 14.1-16.4 25.5-16.4 15.4 0 27.9 12.5 27.9 27.9q0 2-0.6 5.8z"/>
		<path id="&lt;Path&gt;" class="s1" d="m250.1-93.7q6.9 6.9 7.2 14.1c0 4-3.2 7.2-7.2 7.2-3.9 0-7.1-3.2-7.1-7.2q0.2-7.2 7.1-14.1z"/>
		<path id="&lt;Path&gt;" class="s1" d="m305.5-93.7q6.9 6.9 7.1 14.1c0 4-3.2 7.2-7.1 7.2-4 0-7.2-3.2-7.2-7.2q0.3-7.2 7.2-14.1z"/>
		<path id="&lt;Path&gt;" class="s1" d="m277.8-87q6.9 6.9 7.2 14.1c0 4-3.2 7.2-7.2 7.2-4 0-7.2-3.2-7.2-7.2q0.3-7.2 7.2-14.1z"/>
		<path id="&lt;Path&gt;" class="s0" d="m-481-133.9c10.3 2.3 18.1 11.6 18.1 22.7 0 12.8-10.4 23.2-23.2 23.2h-75.1c-12.8 0-23.2-9.2-23.2-22 0-10.9 7.6-20.1 17.8-22.6-0.6-1.8-0.9-3.8-0.9-5.9 0-10.3 8.3-18.7 18.7-18.7 5.1 0 9.7 2.1 13.1 5.4 4.5-10 14.6-17 26.4-17 15.9 0 28.9 13 28.9 28.9q0 2.1-0.6 6z"/>
		<path id="&lt;Path&gt;" class="s0" d="m-289.3-129.7c9.4 2.2 16.5 10.6 16.5 20.6 0 11.6-9.5 21.1-21.1 21.1h-68.1c-11.6 0-21.1-8.3-21.1-19.9 0-10 6.9-18.3 16.2-20.5-0.6-1.7-0.9-3.6-0.9-5.5 0-9.3 7.6-16.9 17-16.9 4.6 0 8.8 1.9 11.9 4.9 4.1-9.1 13.3-15.4 23.9-15.4 14.5 0 26.3 11.7 26.3 26.2q0 1.9-0.6 5.4z"/>
		<path id="&lt;Path&gt;" class="s0" d="m-306.5-159.9c3.9-4.3 9.1-7.4 15.2-8.5 14.4-2.5 28.2 7.1 30.7 21.5 2.1 11.9-4.1 23.4-14.4 28.4"/>
		<path id="&lt;Path&gt;" class="s0" d="m93-122.1c7.7 1.7 13.5 8.6 13.5 16.8 0 9.5-7.8 17.3-17.3 17.3h-55.7c-9.6 0-17.3-6.8-17.3-16.3 0-8.2 5.7-15 13.3-16.8q-0.7-2.1-0.8-4.4c0-7.7 6.3-13.9 13.9-13.9 3.8 0 7.3 1.5 9.8 4 3.4-7.5 10.9-12.6 19.6-12.6 11.8 0 21.5 9.6 21.5 21.5q0 1.5-0.5 4.4z"/>
		<path id="&lt;Path&gt;" class="s0" d="m78.9-146.9c3.2-3.5 7.5-6 12.5-6.9 11.7-2.1 23 5.8 25.1 17.6 1.7 9.7-3.4 19.1-11.8 23.2"/>
		<g id="&lt;Group&gt;">
			<circle id="&lt;Path&gt;" class="s0" cx="-122.2" cy="-126.4" r="33.1"/>
			<path id="&lt;Path&gt;" class="s0" d="m-122.2-175.5v-10.5"/>
			<path id="&lt;Path&gt;" class="s0" d="m-181.7-126.4h10.5"/>
			<path id="&lt;Path&gt;" class="s0" d="m-87.6-91.7l8.2 8.2"/>
			<path id="&lt;Path&gt;" class="s0" d="m-165.1-169.2l8.2 8.2"/>
			<path id="&lt;Path&gt;" class="s0" d="m-156.9-91.7l-8.2 8.2"/>
			<path id="&lt;Path&gt;" class="s0" d="m-79.4-169.2l-8.2 8.2"/>
			<g id="&lt;Group&gt;">
				<path id="&lt;Path&gt;" class="s0" d="m-87.6-161l8.2-8.2"/>
				<path id="&lt;Path&gt;" class="s0" d="m-165.1-83.5l8.2-8.2"/>
				<path id="&lt;Path&gt;" class="s0" d="m-87.7-91.6l8.2 8.2"/>
				<path id="&lt;Path&gt;" class="s0" d="m-165.2-169.1l8.2 8.2"/>
				<path id="&lt;Path&gt;" class="s0" d="m-122.3-77.3v10.4"/>
				<path id="&lt;Path&gt;" class="s0" d="m-122.3-185.7v10.4"/>
				<path id="&lt;Path&gt;" class="s0" d="m-171.3-126.3h-10.5"/>
				<path id="&lt;Path&gt;" class="s0" d="m-62.9-126.3h-10.5"/>
			</g>
		</g>
		<path id="&lt;Path&gt;" class="s0" d="m95.2-168.8l-0.1-8.4"/>
		<path id="&lt;Path&gt;" class="s0" d="m130.7-129.2h8.4"/>
		<path id="&lt;Path&gt;" class="s0" d="m122-158.1l6-5.9"/>
		<path id="&lt;Path&gt;" class="s0" d="m66.2-158.1l-5.9-5.9"/>
		<path id="&lt;Path&gt;" class="s0" d="m124.7-98.7l-6-6"/>
		<path id="&lt;Path&gt;" class="s2" d="m492.1-106.5l-9 13.2 17.1 0.1-48.6 26.8 16.4-21.5-14.2-0.2 14.8-18.4z"/>
		<path id="&lt;Path&gt;" class="s0" d="m520.1-154.7c10.3 2.3 18 11.5 18 22.5 0 12.7-10.4 23.1-23.1 23.1h-74.7c-12.7 0-23.1-9.1-23.1-21.8 0-11 7.6-20.1 17.8-22.5-0.7-1.9-1-3.9-1-5.9 0-10.3 8.3-18.6 18.6-18.6 5.1 0 9.7 2 13.1 5.3 4.5-9.9 14.5-16.9 26.2-16.9 15.9 0 28.8 12.9 28.8 28.8q0 2.1-0.6 6z"/>
		<path id="&lt;Path&gt;" class="s0" d="m40.2 101.5c-12.4 0-22.4-8.8-22.4-21.2 0-10.6 7.3-19.4 17.2-21.8-0.6-1.8-1-3.7-1-5.7 0-10 8.1-18 18.1-18 4.9 0 9.4 2 12.6 5.2 4.4-9.7 14.1-16.4 25.4-16.4 15.5 0 27.9 12.5 27.9 27.9q0 2-0.6 5.8v-0.1c10 2.3 17.5 11.2 17.5 21.9 0 12.3-10 22.4-22.4 22.4"/>
		<g id="&lt;Group&gt;">
			<path id="&lt;Path&gt;" class="s3" d="m76.3 76.7v49.5"/>
			<path id="&lt;Path&gt;" class="s3" d="m101.1 101.5h-49.5"/>
			<path id="&lt;Path&gt;" class="s3" d="m55.6 94.3l7.2 7.2-7.2 7.1"/>
			<path id="&lt;Path&gt;" class="s3" d="m97.1 108.6l-7.2-7.1 7.2-7.2"/>
			<path id="&lt;Path&gt;" class="s3" d="m69.2 122.2l7.1-7.2 7.2 7.2"/>
			<path id="&lt;Path&gt;" class="s3" d="m83.5 80.7l-7.2 7.2-7.1-7.2"/>
			<path id="&lt;Path&gt;" class="s3" d="m93.8 84l-35 35"/>
			<path id="&lt;Path&gt;" class="s3" d="m93.8 119l-35-35"/>
		</g>
		<path id="&lt;Path&gt;" class="s0" d="m-90.3 73.1q0.1 0.3 0.1 0.5c0 18.3-14.9 33.1-33.2 33.1-18.2 0-33.1-14.8-33.1-33.1 0-17 12.8-30.9 29.2-32.9-4.1 4.5-6.7 10.4-6.7 16.9 0 13.6 11 24.6 24.6 24.6 7.8 0 14.6-3.5 19.1-9.1z"/>
		<path id="&lt;Path&gt;" class="s0" d="m304.8 69c8.8 2 15.4 9.8 15.4 19.2 0 10.9-8.9 19.8-19.8 19.8h-63.7c-10.9 0-19.8-7.8-19.8-18.7 0-9.3 6.5-17.1 15.2-19.2q-0.8-2.4-0.8-5c0-8.8 7.1-15.9 15.8-15.9 4.4 0 8.3 1.7 11.2 4.6 3.9-8.6 12.4-14.5 22.4-14.5 13.6 0 24.6 11 24.6 24.6q0 1.8-0.5 5.1z"/>
		<path id="&lt;Path&gt;" class="s0" d="m285.1 37.2c0-13.1 9.8-21.9 22.5-23.4-3.2 3.4-5.2 7.9-5.2 13 0 10.5 8.6 19 19.1 19 6 0 11.3-2.7 14.8-7q0 0.2 0 0.4c0 14.1-13.5 25.6-27.6 25.6"/>
		<path id="&lt;Path&gt;" class="s0" d="m518.8 52c10 2.2 17.4 11.1 17.4 21.8 0 12.4-10 22.4-22.4 22.4h-72.3c-12.4 0-22.4-8.8-22.4-21.2 0-10.5 7.3-19.4 17.2-21.7-0.6-1.8-1-3.8-1-5.8 0-9.9 8.1-18 18.1-18 4.9 0 9.4 2 12.6 5.2 4.4-9.7 14.1-16.4 25.5-16.4 15.4 0 27.9 12.5 27.9 27.9q0 2-0.6 5.8z"/>
		<circle id="&lt;Path&gt;" class="s2" cx="451.3" cy="111.8" r="3.8"/>
		<circle id="&lt;Path&gt;" class="s2" cx="478.9" cy="111.8" r="3.8"/>
		<circle id="&lt;Path&gt;" class="s2" cx="506.5" cy="111.8" r="3.8"/>
		<circle id="&lt;Path&gt;" class="s2" cx="465.3" cy="125.8" r="3.8"/>
		<circle id="&lt;Path&gt;" class="s2" cx="492.9" cy="125.8" r="3.8"/>
		<path id="&lt;Path&gt;" class="s0" d="m-279.7 48.1c10.3 2.3 18.1 11.6 18.1 22.7 0 12.8-10.4 23.2-23.2 23.2h-75.1c-12.8 0-23.2-9.2-23.2-22 0-10.9 7.6-20.1 17.9-22.6-0.7-1.8-1-3.8-1-5.9 0-10.3 8.3-18.7 18.7-18.7 5.1 0 9.7 2.1 13.1 5.4 4.6-10 14.6-17 26.4-17 15.9 0 28.9 13 28.9 28.9q0 2.1-0.6 6z"/>
		<path id="&lt;Path&gt;" class="s2" d="m88.3 298.2l-7.7 11.2h14.5l-41.2 22.9 13.9-18.4-12-0.1 12.5-15.6z"/>
		<path id="&lt;Path&gt;" class="s0" d="m118.8 249.8c10.3 2.3 18 11.5 18 22.5 0 12.7-10.4 23.1-23.1 23.1h-74.7c-12.7 0-23.1-9.1-23.1-21.8 0-11 7.6-20.1 17.8-22.5-0.7-1.9-1-3.9-1-5.9 0-10.3 8.3-18.6 18.6-18.6 5.1 0 9.7 2 13 5.3h0.1c4.5-9.9 14.5-16.9 26.2-16.9 15.9 0 28.8 12.9 28.8 28.8q0 2.1-0.6 6z"/>
		<circle id="&lt;Path&gt;" class="s2" cx="41.3" cy="309.8" r="3.8"/>
		<circle id="&lt;Path&gt;" class="s2" cx="110.5" cy="309.8" r="3.8"/>
		<circle id="&lt;Path&gt;" class="s2" cx="90.5" cy="327.8" r="3.8"/>
		<path id="&lt;Path&gt;" class="s0" d="m-356.5 111l10.9 11"/>
		<path id="&lt;Path&gt;" class="s0" d="m-356.5 122.2l11-11"/>
		<path id="&lt;Path&gt;" class="s0" d="m-300.6 110.9l10.9 10.9"/>
		<path id="&lt;Path&gt;" class="s0" d="m-300.6 122.1l11.1-11.1"/>
		<path id="&lt;Path&gt;" class="s0" d="m-329.2 122.6l10.9 10.9"/>
		<path id="&lt;Path&gt;" class="s0" d="m-329.2 133.8l11.1-11"/>
		<path id="&lt;Path&gt;" class="s0" d="m-291.3 256.2c9.4 2.1 16.4 10.5 16.4 20.5 0 11.6-9.4 21.1-21 21.1h-68.1c-11.7 0-21.1-8.3-21.1-19.9 0-10 6.9-18.3 16.2-20.5-0.6-1.7-0.9-3.5-0.9-5.4 0-9.4 7.6-17 17-17 4.6 0 8.8 1.9 11.9 4.9 4.1-9.1 13.3-15.4 23.9-15.4 14.5 0 26.3 11.7 26.3 26.2q0 1.9-0.6 5.5z"/>
		<path id="&lt;Path&gt;" class="s0" d="m-308.5 225.9c3.8-4.3 9.1-7.4 15.2-8.5 14.4-2.5 28.1 7.1 30.7 21.5 2.1 11.9-4.1 23.4-14.5 28.4"/>
		<circle id="&lt;Path&gt;" class="s2" cx="-357.6" cy="317" r="3.8"/>
		<circle id="&lt;Path&gt;" class="s2" cx="-330" cy="317" r="3.8"/>
		<circle id="&lt;Path&gt;" class="s2" cx="-302.4" cy="317" r="3.8"/>
		<circle id="&lt;Path&gt;" class="s2" cx="-343.6" cy="331" r="3.8"/>
		<circle id="&lt;Path&gt;" class="s2" cx="-316" cy="331" r="3.8"/>
		<path id="&lt;Path&gt;" class="s0" d="m-163.7 299.5c-11.7 0-21.1-8.3-21.1-19.9 0-10 6.9-18.3 16.2-20.5-0.6-1.7-0.9-3.5-0.9-5.4 0-9.4 7.6-17 17-17 4.6 0 8.8 1.9 11.9 4.9 4.1-9.1 13.3-15.4 23.9-15.4 14.5 0 26.3 11.8 26.3 26.3q0 1.8-0.6 5.4c9.4 2.1 16.4 10.5 16.4 20.5 0 11.7-9.4 21.1-21 21.1"/>
		<path id="&lt;Path&gt;" class="s0" d="m-108.2 227.6c3.8-4.3 9.1-7.4 15.2-8.4 14.4-2.6 28.1 7 30.7 21.4 2.1 11.9-4.1 23.4-14.5 28.5"/>
		<g id="&lt;Group&gt;">
			<path id="&lt;Path&gt;" class="s3" d="m-129.7 274.8v49.5"/>
			<path id="&lt;Path&gt;" class="s3" d="m-104.9 299.5h-49.5"/>
			<path id="&lt;Path&gt;" class="s3" d="m-150.4 292.3l7.1 7.2-7.1 7.2"/>
			<path id="&lt;Path&gt;" class="s3" d="m-108.9 306.7l-7.2-7.2 7.2-7.2"/>
			<path id="&lt;Path&gt;" class="s3" d="m-136.8 320.3l7.1-7.2 7.2 7.2"/>
			<path id="&lt;Path&gt;" class="s3" d="m-122.5 278.8l-7.2 7.1-7.1-7.1"/>
			<path id="&lt;Path&gt;" class="s3" d="m-112.2 282l-35 35"/>
			<path id="&lt;Path&gt;" class="s3" d="m-112.2 317l-35-35"/>
		</g>
		<path id="&lt;Path&gt;" class="s0" d="m296.8 264.2c7 1.6 12.1 7.8 12.1 15.2 0 8.6-6.9 15.5-15.5 15.5h-50.2c-8.6 0-15.6-6.1-15.6-14.6 0-7.4 5.1-13.5 12-15.2q-0.7-1.8-0.7-3.9c0-7 5.6-12.6 12.5-12.6 3.5 0 6.6 1.4 8.8 3.7 3.1-6.7 9.8-11.4 17.7-11.4 10.7 0 19.3 8.7 19.3 19.4q0 1.3-0.4 4z"/>
		<path id="&lt;Path&gt;" class="s0" d="m278.8 237.4c0-13.1 9.9-21.9 22.6-23.4-3.2 3.4-5.2 8-5.2 13.1 0 10.5 8.5 19 19 19 6 0 11.3-2.7 14.8-7q0 0.2 0 0.3c0 14.2-13.5 25.7-27.6 25.7"/>
		<circle id="&lt;Path&gt;" class="s2" cx="240.7" cy="311" r="3.8"/>
		<circle id="&lt;Path&gt;" class="s2" cx="268.3" cy="311" r="3.8"/>
		<circle id="&lt;Path&gt;" class="s2" cx="295.9" cy="311" r="3.8"/>
		<circle id="&lt;Path&gt;" class="s2" cx="254.7" cy="325" r="3.8"/>
		<circle id="&lt;Path&gt;" class="s2" cx="282.3" cy="325" r="3.8"/>
		<path id="&lt;Path&gt;" class="s0" d="m496.9 264.6c6.9 1.6 12.1 7.8 12.1 15.2 0 8.6-7 15.5-15.5 15.5h-50.3c-8.5 0-15.5-6.1-15.5-14.7 0-7.3 5.1-13.5 11.9-15.1q-0.6-1.9-0.6-4c0-6.9 5.6-12.5 12.5-12.5 3.4 0 6.5 1.4 8.8 3.6 3-6.7 9.8-11.3 17.6-11.3 10.7 0 19.4 8.6 19.4 19.3q0 1.4-0.4 4z"/>
		<path id="&lt;Path&gt;" class="s0" d="m478.9 237.8c0-13.1 9.8-21.9 22.5-23.4-3.2 3.4-5.1 8-5.1 13 0 10.6 8.5 19.1 19 19.1 6 0 11.3-2.8 14.8-7q0 0.1 0 0.3c0 14.2-13.5 25.6-27.6 25.6"/>
		<path id="&lt;Path&gt;" class="s1" d="m446.4 307.9q5.4 5.5 5.6 11.2c0 3.1-2.5 5.6-5.6 5.6-3.1 0-5.7-2.5-5.7-5.6q0.3-5.7 5.7-11.2z"/>
		<path id="&lt;Path&gt;" class="s1" d="m489.9 307.9q5.4 5.5 5.6 11.2c0 3.1-2.5 5.6-5.6 5.6-3.1 0-5.7-2.5-5.7-5.6q0.3-5.7 5.7-11.2z"/>
		<path id="&lt;Path&gt;" class="s1" d="m468.1 313.2q5.4 5.4 5.7 11.2c0 3.1-2.6 5.6-5.7 5.6-3.1 0-5.6-2.5-5.6-5.6q0.2-5.8 5.6-11.2z"/>
		<path id="&lt;Path&gt;" class="s0" d="m-505.7 264.9c7 1.5 12.2 7.7 12.2 15.2 0 8.5-7 15.5-15.6 15.5h-50.2c-8.6 0-15.5-6.1-15.5-14.7 0-7.3 5-13.5 11.9-15.1q-0.7-1.9-0.7-4c0-6.9 5.6-12.5 12.5-12.5 3.5 0 6.6 1.4 8.8 3.6 3.1-6.7 9.8-11.4 17.7-11.4 10.7 0 19.3 8.7 19.3 19.4q0 1.4-0.4 4z"/>
		<path id="&lt;Path&gt;" class="s0" d="m-523.7 238.1c0-13.1 9.9-21.9 22.6-23.4-3.2 3.4-5.2 8-5.2 13 0 10.5 8.5 19.1 19 19.1 6 0 11.3-2.8 14.8-7.1q0 0.2 0 0.4c0 14.1-13.4 25.6-27.6 25.6"/>
		<path id="&lt;Path&gt;" class="s2" d="m-521.3 296.9l-7.6 11.2h14.4l-41.2 22.8 13.9-18.3-12-0.1 12.5-15.6z"/>
		<g id="&lt;Group&gt;">
			<path id="&lt;Path&gt;" class="s0" d="m-549 511.6c-4.8-5.8-7.7-13.2-7.7-21.2 0-18.3 14.8-33.1 33.1-33.1 18.3 0 33.1 14.8 33.1 33.1 0 8-2.9 15.4-7.7 21.2"/>
			<path id="&lt;Path&gt;" class="s0" d="m-523.6 443.2v-10.4"/>
			<path id="&lt;Path&gt;" class="s0" d="m-583 490.4h10.4"/>
			<path id="&lt;Path&gt;" class="s0" d="m-566.4 447.5l8.2 8.2"/>
			<path id="&lt;Path&gt;" class="s0" d="m-480.8 447.5l-8.2 8.2"/>
			<g id="&lt;Group&gt;">
				<path id="&lt;Path&gt;" class="s0" d="m-488.9 455.7l8.2-8.2"/>
				<path id="&lt;Path&gt;" class="s0" d="m-566.5 447.6l8.2 8.2"/>
				<path id="&lt;Path&gt;" class="s0" d="m-523.7 431.1v10.4"/>
				<path id="&lt;Path&gt;" class="s0" d="m-572.7 490.5h-10.4"/>
				<path id="&lt;Path&gt;" class="s0" d="m-464.3 490.5h-10.4"/>
			</g>
			<path id="&lt;Path&gt;" class="s0" d="m-577.9 527.6h108.4"/>
		</g>
		<path id="&lt;Path&gt;" class="s0" d="m-337.5 451c4.5-2.4 9.7-3.7 15.2-3.7 18.2 0 33.1 14.8 33.1 33.1 0 3.8-0.7 7.5-1.9 10.9"/>
		<path id="&lt;Path&gt;" class="s0" d="m-81 454.3c10.3 2.3 18.1 11.5 18.1 22.6 0 12.8-10.4 23.2-23.2 23.2h-75.1c-12.8 0-23.2-9.1-23.2-21.9 0-11 7.6-20.2 17.8-22.6-0.6-1.9-0.9-3.9-0.9-6 0-10.3 8.3-18.6 18.7-18.6 5.1 0 9.7 2 13.1 5.3 4.5-10 14.6-16.9 26.3-16.9 16 0 29 12.9 29 28.9q0 2-0.6 6z"/>
		<path id="&lt;Path&gt;" class="s0" d="m-154.4 514.4l-2 14.2"/>
		<path id="&lt;Path&gt;" class="s0" d="m-133.7 514.4l-4 28.2"/>
		<path id="&lt;Path&gt;" class="s0" d="m-112.2 514.4l-4 28.2"/>
		<path id="&lt;Path&gt;" class="s0" d="m-91.4 514.4l-2 14.2"/>
		<path id="&lt;Path&gt;" class="s0" d="m444.5 513.6l-1.6 11"/>
		<path id="&lt;Path&gt;" class="s0" d="m460.6 513.6l-3.1 21.8"/>
		<path id="&lt;Path&gt;" class="s0" d="m477.2 513.6l-3.1 21.8"/>
		<path id="&lt;Path&gt;" class="s0" d="m493.3 513.6l-1.5 11"/>
		<path id="&lt;Path&gt;" class="s0" d="m237.5 513.6l-1.6 11"/>
		<path id="&lt;Path&gt;" class="s0" d="m253.5 513.6l-3.1 21.8"/>
		<path id="&lt;Path&gt;" class="s0" d="m270.2 513.6l-3.1 21.8"/>
		<path id="&lt;Path&gt;" class="s0" d="m286.3 513.6l-1.6 11"/>
		<path id="&lt;Path&gt;" class="s0" d="m45.5 513.6l-1.5 11"/>
		<path id="&lt;Path&gt;" class="s0" d="m61.6 513.6l-3.1 21.8"/>
		<path id="&lt;Path&gt;" class="s0" d="m78.3 513.6l-3.1 21.8"/>
		<path id="&lt;Path&gt;" class="s0" d="m94.4 513.6l-1.6 11"/>
		<path id="&lt;Path&gt;" class="s0" d="m108.7 458.5c9.4 2.1 16.4 10.5 16.4 20.5 0 11.7-9.4 21.1-21 21.1h-68.1c-11.7 0-21.1-8.3-21.1-19.9 0-10 6.9-18.3 16.2-20.5-0.6-1.7-0.9-3.5-0.9-5.4 0-9.4 7.6-17 17-17 4.6 0 8.8 1.9 11.9 4.9 4.1-9.1 13.3-15.4 23.9-15.4 14.5 0 26.3 11.8 26.3 26.3q0 1.8-0.6 5.4z"/>
		<path id="&lt;Path&gt;" class="s0" d="m91.5 428.2c3.8-4.3 9.1-7.4 15.2-8.4 14.4-2.6 28.1 7 30.7 21.4 2.1 12-4.1 23.4-14.5 28.5"/>
		<path id="&lt;Path&gt;" class="s0" d="m293.8 466.2c7.7 1.8 13.5 8.7 13.5 16.9 0 9.5-7.8 17.2-17.3 17.2h-55.7c-9.6 0-17.3-6.8-17.3-16.3 0-8.1 5.7-15 13.3-16.8q-0.8-2.1-0.8-4.4c0-7.7 6.3-13.9 13.9-13.9 3.8 0 7.3 1.6 9.8 4 3.4-7.4 10.9-12.6 19.6-12.6 11.8 0 21.5 9.6 21.5 21.5q0 1.5-0.5 4.5z"/>
		<path id="&lt;Path&gt;" class="s0" d="m279.7 441.5c3.2-3.5 7.5-6.1 12.5-7 11.7-2 23 5.8 25.1 17.6 1.7 9.8-3.4 19.2-11.8 23.3"/>
		<path id="&lt;Path&gt;" class="s0" d="m296 419.6l-0.1-8.5"/>
		<path id="&lt;Path&gt;" class="s0" d="m331.5 459.2l8.4-0.1"/>
		<path id="&lt;Path&gt;" class="s0" d="m322.8 430.3l5.9-6"/>
		<path id="&lt;Path&gt;" class="s0" d="m267 430.3l-5.9-6"/>
		<path id="&lt;Path&gt;" class="s0" d="m325.4 489.7l-5.9-6"/>
		<path id="&lt;Path&gt;" class="s0" d="m496.8 468.9c7 1.6 12.2 7.8 12.2 15.2 0 8.5-7 15.5-15.6 15.5h-50.2c-8.6 0-15.5-6.1-15.5-14.7 0-7.3 5.1-13.5 11.9-15.1q-0.6-1.9-0.7-4c0-6.9 5.6-12.5 12.5-12.5 3.5 0 6.6 1.4 8.8 3.6 3.1-6.7 9.8-11.4 17.7-11.4 10.7 0 19.4 8.7 19.4 19.4q0 1.4-0.5 4z"/>
		<path id="&lt;Path&gt;" class="s0" d="m478.8 442.1c0-13.1 9.9-21.9 22.6-23.4-3.2 3.4-5.2 8-5.2 13 0 10.5 8.5 19.1 19.1 19.1 5.9 0 11.2-2.8 14.7-7.1q0 0.2 0 0.4c0 14.2-13.4 25.6-27.6 25.6"/>
		<path id="&lt;Path&gt;" class="s0" d="m-273.7 479.6c0 0.2 0 0.4 0 0.6 0 26.9-21.8 48.7-48.6 48.7-26.9 0-48.7-21.8-48.7-48.7 0-24.9 18.7-45.4 42.9-48.3-6.1 6.5-9.9 15.2-9.9 24.8 0 20 16.2 36.2 36.2 36.2 11.4 0 21.5-5.2 28.1-13.3z"/>
		<path id="&lt;Path&gt;" class="s0" d="m-573.9 97.5h101.1"/>
		<path id="&lt;Path&gt;" class="s0" d="m-580.3 85.2h113.3"/>
		<path id="&lt;Path&gt;" class="s0" d="m-576.2 72.9h105.8"/>
		<path id="&lt;Path&gt;" class="s0" d="m-566.1 60.7h87"/>
		<path id="&lt;Path&gt;" class="s0" d="m-522.6 36.1h31.1"/>
		<path id="&lt;Path&gt;" class="s0" d="m-558 47.8h17.3"/>
		<path id="&lt;Path&gt;" class="s0" d="m-528.6 48.1h43.1"/>
		<path id="&lt;Path&gt;" class="s0" d="m-563.9 109.5h83.1"/>
	</g>
</svg>